<?xml version="1.0" encoding="UTF-8"?>
<!DOCTYPE svg PUBLIC "-//W3C//DTD SVG 1.1//EN" "http://www.w3.org/Graphics/SVG/1.1/DTD/svg11.dtd">
<!-- Creator: CorelDRAW 2020 (64-Bit) -->
<svg xmlns="http://www.w3.org/2000/svg" xml:space="preserve" width="80px" height="80px" version="1.1" style="shape-rendering:geometricPrecision; text-rendering:geometricPrecision; image-rendering:optimizeQuality; fill-rule:evenodd; clip-rule:evenodd"
viewBox="0 0 39.47 39.47"
 xmlns:xlink="http://www.w3.org/1999/xlink"
 xmlns:xodm="http://www.corel.com/coreldraw/odm/2003">
 <defs>
  <style type="text/css">
   <![CDATA[
    .str0 {stroke:#2B2624;stroke-width:0.49;stroke-miterlimit:22.9256}
    .fil0 {fill:none}
    .fil1 {fill:#2B2624;fill-rule:nonzero}
   ]]>
  </style>
 </defs>
 <g id="Camada_x0020_1">
  <metadata id="CorelCorpID_0Corel-Layer"/>
  <g id="advantages-item-2.svg">
   <circle class="fil0 str0" cx="19.74" cy="19.74" r="19.49"/>
   <path class="fil1" d="M19.74 21.34c1.96,0 3.56,-1.64 3.56,-3.66l0 -5.64c0,-2.01 -1.6,-3.65 -3.56,-3.65 -1.97,0 -3.57,1.64 -3.57,3.65l0 5.64c0,2.02 1.6,3.66 3.57,3.66zm-2.92 -9.3c0,-1.66 1.31,-3 2.92,-3 1.6,0 2.91,1.34 2.91,3l0 5.64c0,1.66 -1.31,3.01 -2.91,3.01 -1.61,0 -2.92,-1.35 -2.92,-3.01l0 -5.64z"/>
   <path class="fil1" d="M25.56 16.48c-0.17,0 -0.32,0.15 -0.32,0.33l0 1.17c0,3.1 -2.47,5.63 -5.5,5.63 -3.04,0 -5.51,-2.53 -5.51,-5.63l0 -1.17c0,-0.18 -0.14,-0.33 -0.32,-0.33 -0.18,0 -0.33,0.15 -0.33,0.33l0 1.17c0,3.35 2.59,6.08 5.83,6.26l0 4.22 -3.24 0c-0.17,0 -0.32,0.15 -0.32,0.33 0,0.18 0.15,0.32 0.32,0.32l7.13 0c0.18,0 0.32,-0.14 0.32,-0.32 0,-0.18 -0.14,-0.33 -0.32,-0.33l-3.24 0 0 -4.22c3.24,-0.18 5.83,-2.91 5.83,-6.26l0 -1.17c0,-0.18 -0.15,-0.33 -0.33,-0.33z"/>
  </g>
 </g>
</svg>
