<?xml version="1.0" encoding="UTF-8"?>
<!DOCTYPE svg PUBLIC "-//W3C//DTD SVG 1.1//EN" "http://www.w3.org/Graphics/SVG/1.1/DTD/svg11.dtd">
<!-- Creator: CorelDRAW 2020 (64-Bit) -->
<svg xmlns="http://www.w3.org/2000/svg" xml:space="preserve" width="80px" height="80px" version="1.1" style="shape-rendering:geometricPrecision; text-rendering:geometricPrecision; image-rendering:optimizeQuality; fill-rule:evenodd; clip-rule:evenodd"
viewBox="0 0 51.88 51.88"
 xmlns:xlink="http://www.w3.org/1999/xlink"
 xmlns:xodm="http://www.corel.com/coreldraw/odm/2003">
 <defs>
  <style type="text/css">
   <![CDATA[
    .str0 {stroke:#2B2624;stroke-width:0.65;stroke-miterlimit:22.9256}
    .fil0 {fill:none}
    .fil1 {fill:#2B2624;fill-rule:nonzero}
   ]]>
  </style>
    <clipPath id="id0">
     <path d="M11.67 47.34l28.53 0 0 -35.67 -28.53 0 0 35.67z"/>
    </clipPath>
 </defs>
 <g id="Camada_x0020_1">
  <metadata id="CorelCorpID_0Corel-Layer"/>
  <g id="advantages-item-3.svg">
   <circle class="fil0 str0" cx="25.94" cy="25.94" r="25.61"/>
   <g>
   </g>
   <g style="clip-path:url(#id0)">
    <g id="_938270000">
     <path class="fil1" d="M14.79 18.81c0,1.02 0.35,2.22 1.34,2.22l5.09 0 4.21 7.61 -4.21 7.11 -1.52 0 0 0.89 2.04 0 4.2 -7.08 4.19 7.08 2.05 0 0 -0.89 -1.52 0 -4.21 -7.11 4.21 -7.61 5.09 0c0.98,0 1.33,-1.2 1.33,-2.22l0 -0.45 -22.29 0 0 0.45zm11.15 8.91l-3.7 -6.69 7.4 0 -3.7 6.69zm10.22 -8.47c-0.07,0.45 -0.21,0.89 -0.41,0.89l-19.62 0c-0.2,0 -0.35,-0.44 -0.41,-0.89l20.44 0z"/>
    </g>
   </g>
   <polygon class="fil0" points="11.67,47.34 40.2,47.34 40.2,11.67 11.67,11.67 "/>
  </g>
 </g>
</svg>
