<?xml version="1.0" encoding="UTF-8"?>
<!DOCTYPE svg PUBLIC "-//W3C//DTD SVG 1.1//EN" "http://www.w3.org/Graphics/SVG/1.1/DTD/svg11.dtd">
<!-- Creator: CorelDRAW 2020 (64-Bit) -->
<svg xmlns="http://www.w3.org/2000/svg" xml:space="preserve" width="80px" height="80px" version="1.1" style="shape-rendering:geometricPrecision; text-rendering:geometricPrecision; image-rendering:optimizeQuality; fill-rule:evenodd; clip-rule:evenodd"
viewBox="0 0 24.73 24.73"
 xmlns:xlink="http://www.w3.org/1999/xlink"
 xmlns:xodm="http://www.corel.com/coreldraw/odm/2003">
 <defs>
  <style type="text/css">
   <![CDATA[
    .str0 {stroke:#2B2624;stroke-width:0.31;stroke-miterlimit:22.9256}
    .fil0 {fill:none}
    .fil1 {fill:#2B2624;fill-rule:nonzero}
   ]]>
  </style>
   <clipPath id="id0">
    <path d="M7.42 17.62l10.2 0 0 -10.2 -10.2 0 0 10.2z"/>
   </clipPath>
 </defs>
 <g id="Camada_x0020_1">
  <metadata id="CorelCorpID_0Corel-Layer"/>
  <circle class="fil0 str0" cx="12.36" cy="12.36" r="12.21"/>
  <g>
  </g>
  <g style="clip-path:url(#id0)">
   <g>
    <path class="fil1" d="M10.03 10.33c0.04,0.04 0.1,0.06 0.15,0.06 0.06,0 0.11,-0.02 0.15,-0.06 0.08,-0.08 0.08,-0.22 0,-0.3l-1.91 -1.91c-0.08,-0.08 -0.22,-0.08 -0.3,0 -0.08,0.08 -0.08,0.22 0,0.3l1.91 1.91z"/>
    <path class="fil1" d="M9.03 7.82l1.95 1.66c0.2,0.2 0.32,0.47 0.31,0.73 0,0.37 0.18,0.77 0.59,1.29 0.04,0.05 0.1,0.08 0.16,0.08 0.05,0 0.1,-0.02 0.13,-0.05 0.1,-0.07 0.11,-0.21 0.04,-0.3 -0.45,-0.56 -0.49,-0.85 -0.49,-1.02 0,-0.37 -0.16,-0.75 -0.45,-1.04l-1.97 -1.67c-0.09,-0.08 -0.22,-0.06 -0.3,0.03 -0.07,0.08 -0.06,0.22 0.03,0.29z"/>
    <path class="fil1" d="M17.43 16.53l-2.92 -2.92c-0.08,-0.08 -0.22,-0.08 -0.3,0 -0.08,0.08 -0.08,0.22 0,0.3l2.92 2.92c0.08,0.08 0.08,0.22 0,0.3 -0.08,0.08 -0.22,0.08 -0.3,0l-3.2 -3.2c-0.08,-0.08 -0.22,-0.08 -0.3,0 -0.08,0.09 -0.08,0.22 0,0.3l3.2 3.2c0.13,0.13 0.29,0.19 0.45,0.19 0.16,0 0.33,-0.06 0.45,-0.19 0.25,-0.25 0.25,-0.65 0,-0.9z"/>
    <path class="fil1" d="M17.48 8.35c0,-0.35 -0.12,-0.64 -0.35,-0.87 -0.07,-0.08 -0.19,-0.08 -0.28,-0.01 -0.04,0.03 -0.75,0.73 -9.03,9.03 -0.25,0.25 -0.25,0.65 0,0.9 0.12,0.12 0.29,0.19 0.45,0.19 0.16,0 0.32,-0.07 0.45,-0.19l2.7 -2.71c1.05,-1.04 1.5,-1.18 1.75,-1.2 0.46,-0.03 0.87,-0.21 1.16,-0.5 1.36,-1.36 3.16,-3.31 3.15,-4.64zm-4.34 4.71c-0.52,0.04 -1.12,0.44 -2.02,1.33l-2.7 2.71c-0.08,0.08 -0.22,0.08 -0.3,0 -0.09,-0.08 -0.08,-0.22 0,-0.3 5.45,-5.46 8.19,-8.2 8.84,-8.85 0.07,0.11 0.1,0.25 0.1,0.4 0,1.31 -2.28,3.59 -3.03,4.33 -0.22,0.23 -0.53,0.36 -0.89,0.38z"/>
    <path class="fil1" d="M10.28 11.72c0.25,0.02 0.56,0.18 0.95,0.49 0.04,0.03 0.09,0.05 0.13,0.05 0.07,0 0.13,-0.03 0.17,-0.08 0.07,-0.1 0.06,-0.23 -0.03,-0.3 -0.47,-0.37 -0.85,-0.56 -1.19,-0.58 -0.25,-0.02 -0.62,-0.1 -0.88,-0.37l-1.64 -1.74c-0.08,-0.09 -0.22,-0.09 -0.3,-0.01 -0.09,0.08 -0.09,0.21 -0.01,0.3l1.64 1.75c0.29,0.28 0.69,0.46 1.16,0.49z"/>
   </g>
  </g>
  <polygon class="fil0" points="7.42,17.62 17.62,17.62 17.62,7.42 7.42,7.42 "/>
 </g>
</svg>
