<svg width="32" height="33" viewBox="0 0 32 33" fill="none" xmlns="http://www.w3.org/2000/svg">
<path d="M31.5 16.16C31.5 24.8135 24.5557 31.82 16 31.82C7.44427 31.82 0.5 24.8135 0.5 16.16C0.5 7.50652 7.44427 0.5 16 0.5C24.5557 0.5 31.5 7.50652 31.5 16.16Z" stroke="#68635F"/>
<path d="M24.7592 18.4897C23.8945 18.0087 23.1582 17.5262 22.621 17.1742C22.2107 16.9057 21.9142 16.7119 21.6969 16.6026C21.0894 16.2989 20.6289 16.5134 20.4538 16.6908C20.4318 16.7128 20.4121 16.7368 20.3952 16.7621C19.7643 17.7106 18.9404 18.6179 18.6992 18.6667C18.4205 18.623 17.116 17.8801 15.8195 16.7983C14.4959 15.693 13.6631 14.6346 13.5408 13.9138C14.39 13.038 14.6959 12.487 14.6959 11.86C14.6959 11.2137 13.1914 8.51551 12.9193 8.24283C12.6462 7.96968 12.0312 7.92697 11.0912 8.1147C11.0008 8.13301 10.9174 8.17759 10.8518 8.24283C10.738 8.35688 8.07475 11.0776 9.34034 14.3751C10.7296 17.9941 14.2954 22.2007 18.8416 22.8841C19.3582 22.9615 19.8425 23 20.2959 23C22.9704 23 24.5489 21.6516 24.9934 18.9769C25.0266 18.7812 24.9325 18.5859 24.7592 18.4897ZM18.9807 21.9557C14.1732 21.2334 11.145 16.4608 10.2148 14.0381C9.29209 11.6352 10.9937 9.49266 11.4209 9.00831C11.7685 8.94917 12.1343 8.9243 12.287 8.94824C12.6059 9.39269 13.7104 11.4836 13.7591 11.86C13.7591 12.1064 13.679 12.4494 12.7254 13.4055C12.6373 13.4932 12.5881 13.6124 12.5881 13.7373C12.5881 16.1947 17.761 19.6039 18.6772 19.6039C19.4739 19.6039 20.5128 18.2621 21.1044 17.3877C21.1385 17.3891 21.1962 17.4009 21.2781 17.4422C21.4467 17.5271 21.739 17.7182 22.1086 17.9603C22.5966 18.2799 23.2449 18.7042 24.0102 19.144C23.6627 20.8195 22.6913 22.5142 18.9807 21.9557Z" fill="#68635F"/>
</svg>
