<svg width="100" height="100" viewBox="0 0 100 100" fill="none" xmlns="http://www.w3.org/2000/svg">
<circle cx="50" cy="50" r="50" fill="url(#paint0_linear)"/>
<circle cx="50" cy="50" r="39.5" stroke="#2B2624"/>
<path d="M63.5936 55.4829C62.1345 54.6811 60.892 53.877 59.9854 53.2903C59.293 52.8429 58.7927 52.5198 58.426 52.3376C57.4008 51.8315 56.6238 52.189 56.3282 52.4846C56.2911 52.5214 56.2579 52.5613 56.2294 52.6035C55.1648 54.1844 53.7744 55.6964 53.3674 55.7778C52.8971 55.705 50.6958 54.4668 48.508 52.6638C46.2743 50.8216 44.869 49.0577 44.6627 47.8563C46.0957 46.3966 46.6118 45.4783 46.6118 44.4333C46.6118 43.3562 44.073 38.8592 43.6138 38.4047C43.153 37.9495 42.1152 37.8783 40.5288 38.1912C40.3763 38.2217 40.2356 38.296 40.125 38.4047C39.9329 38.5948 35.4386 43.1293 37.5743 48.6252C39.9187 54.6569 45.936 61.6679 53.6077 62.8068C54.4795 62.9359 55.2968 63 56.0619 63C60.5751 63 63.2387 60.7527 63.9888 56.2948C64.0449 55.9686 63.8861 55.6432 63.5936 55.4829ZM53.8424 61.2596C45.7297 60.0557 40.6197 52.1014 39.05 48.0635C37.4929 44.0586 40.3644 40.4878 41.0853 39.6805C41.6718 39.582 42.2891 39.5405 42.5467 39.5804C43.085 40.3212 44.9488 43.8059 45.031 44.4333C45.031 44.8439 44.8958 45.4157 43.2866 47.0091C43.138 47.1554 43.055 47.3541 43.055 47.5621C43.055 51.6578 51.7842 57.3399 53.3302 57.3399C54.6747 57.3399 56.4278 55.1035 57.4261 53.6462C57.4838 53.6486 57.581 53.6681 57.7193 53.737C58.0039 53.8786 58.4971 54.1969 59.1207 54.6005C59.9443 55.1332 61.0382 55.8404 62.3298 56.5733C61.7433 59.3658 60.104 62.1904 53.8424 61.2596Z" fill="#2B2624"/>
<defs>
<linearGradient id="paint0_linear" x1="50" y1="0" x2="50" y2="100" gradientUnits="userSpaceOnUse">
<stop stop-color="#EFEFEF"/>
<stop offset="1" stop-color="#F5F5F5"/>
</linearGradient>
</defs>
</svg>
