<svg width="24" height="24" viewBox="0 0 24 24" fill="none" xmlns="http://www.w3.org/2000/svg">
<path fill-rule="evenodd" clip-rule="evenodd" d="M23.9999 11.7332C23.9999 18.2133 18.7988 23.4664 12.3829 23.4664C5.96699 23.4664 0.765869 18.2133 0.765869 11.7332C0.765869 5.25313 5.96699 0 12.3829 0C18.7988 0 23.9999 5.25313 23.9999 11.7332ZM15.6901 13.0082L15.6536 12.9904C15.4585 12.8948 14.5534 12.4513 14.3787 12.3884C14.2997 12.3601 14.215 12.3324 14.125 12.3324C13.978 12.3324 13.8545 12.4057 13.7583 12.5496C13.6495 12.7113 13.3202 13.0962 13.2185 13.2111C13.2052 13.2263 13.1871 13.2445 13.1762 13.2445C13.1665 13.2445 12.9979 13.1751 12.9469 13.1529C11.7788 12.6455 10.8922 11.4254 10.7707 11.2196C10.755 11.1929 10.7529 11.1793 10.7525 11.177L10.7524 11.1766C10.7567 11.1609 10.796 11.1215 10.8162 11.1012C10.8755 11.0426 10.9396 10.9654 11.0017 10.8906L11.0018 10.8906L11.002 10.8904C11.0314 10.8549 11.0609 10.8194 11.0898 10.786C11.1799 10.6811 11.2201 10.5997 11.2666 10.5055L11.2666 10.5055L11.2667 10.5052L11.2911 10.4562C11.4048 10.2303 11.3077 10.0397 11.2763 9.9782C11.2568 9.93908 10.9868 9.28944 10.8367 8.92825L10.8366 8.92792L10.7419 8.70047C10.6244 8.41916 10.4691 8.28818 10.2532 8.28818L10.2427 8.28825C10.2407 8.28831 10.2388 8.28842 10.2352 8.28862C10.2272 8.28906 10.2112 8.28995 10.1692 8.29172C10.067 8.29603 9.51 8.36936 9.26375 8.52459C9.00261 8.68922 8.56083 9.21403 8.56083 10.137C8.56083 10.9676 9.08796 11.7519 9.31428 12.0502C9.31896 12.0565 9.32691 12.0681 9.3381 12.0845L9.34522 12.0949C10.212 13.3607 11.2924 14.2988 12.3878 14.7363C13.4423 15.1576 13.9416 15.2062 14.2255 15.2062H14.2256C14.3449 15.2062 14.4403 15.1969 14.5246 15.1886L14.578 15.1835C14.9423 15.1512 15.7428 14.7364 15.9249 14.2303C16.0684 13.8318 16.1062 13.3963 16.0108 13.2383C15.9454 13.1308 15.8328 13.0767 15.6902 13.0083L15.6901 13.0082ZM4.90289 11.7068C4.90289 7.69205 8.19389 4.42578 12.2391 4.42578C16.2839 4.42578 19.5746 7.69205 19.5746 11.7068C19.5746 15.7212 16.2839 18.9871 12.2391 18.987C11.026 18.987 9.82732 18.6879 8.76675 18.1213L4.89111 19.3528C4.87181 19.359 4.85202 19.362 4.83238 19.362C4.78112 19.362 4.73093 19.3416 4.69393 19.3038C4.64267 19.2516 4.62521 19.175 4.64869 19.1057L5.90871 15.3889C5.2504 14.2764 4.90289 13.0054 4.90289 11.7068ZM9.04157 16.5171C9.99195 17.1408 11.0976 17.4704 12.2391 17.4704C15.4428 17.4704 18.0492 14.8849 18.0492 11.7068C18.0492 8.52838 15.4427 5.94248 12.239 5.94248C9.03492 5.94248 6.42817 8.52838 6.42817 11.7068C6.42817 12.9285 6.81074 14.0969 7.53447 15.0857C7.57181 15.1368 7.58195 15.2028 7.56167 15.2626L6.93494 17.1116L8.8764 16.4945C8.89565 16.4884 8.91543 16.4854 8.93517 16.4854C8.97251 16.4854 9.00961 16.4961 9.04157 16.5171Z" fill="white"/>
</svg>
