<svg xmlns="http://www.w3.org/2000/svg" width="60" height="57" viewBox="0 0 2.64 2.51" shape-rendering="geometricPrecision" image-rendering="optimizeQuality" fill-rule="evenodd" xmlns:v="https://vecta.io/nano"><style><![CDATA[.b{fill:#f9b101}.c{fill:#f08518}.d{fill:#fde235}.e{fill:#fade73}.f{fill:#e5831e}.g{fill:#f3a40b}.h{fill:#fbba00}.i{fill:#cc4e27}.j{fill:#fab800}.k{fill:#e77b1e}.l{fill:#fdd864}.m{fill:#e8751e}.n{fill:#e4831f}.o{fill:#f9b500}.p{fill:#ec9b14}.q{fill:#fbe754}.r{fill:#dc7522}.s{fill:#d15b26}]]></style><g fill-rule="nonzero"><path d="M2.64 1.37c-.02.02-.04.03-.06.03v-.03h.06z" class="d"/><path d="M2.58 1.41l.06-.03c-.02.01-.04.01-.06.01v.02z" class="c"/><path d="M2.58 1.36c.01.01.01.01.02.01h-.02v-.01z" class="e"/><path d="M1.57 1.44c-.08.1-.2.16-.32.17h-.13c-.02-.03-.05-.06-.08-.09-.08-.09-.11-.22-.09-.35 0-.02.01-.04 0-.06.02-.01.03-.03.05-.04.07-.1.19-.16.31-.17h.13c.02.03.05.06.08.09.08.1.11.23.09.35 0 .02-.01.04 0 .06-.02.01-.03.03-.04.04zm.2-.04c0-.01-.01-.02 0-.03 0-.01.01-.01.01-.02.01-.01.01-.02.01-.03v-.04c0-.03.04-.05.03-.08 0-.01-.01-.02-.01-.03-.01-.01-.01-.01-.01-.02v-.1c0-.02 0-.04-.01-.06-.01-.01-.02-.01-.03-.03 0-.02-.01-.03-.02-.04C1.73.9 1.71.89 1.69.88 1.68.87 1.66.86 1.65.86c-.06-.03-.1-.08-.16-.09-.04-.03-.11-.03-.16-.05C1.31.71 1.3.7 1.28.7 1.26.69 1.24.69 1.22.69h-.04c-.02.02-.03.02-.05.02s-.03.01-.05.02c-.02.03-.05.05-.07.07C1 .8 1 .81.99.81.98.82.96.82.95.82.93.84.94.88.92.9.91.91.9.92.89.92.88.93.87.94.87.95v.03C.87.99.86.99.85.99.82 1 .81 1.02.8 1.05c-.01.02-.01.04-.01.06.01.01.01.02.01.03-.01.01-.02.01-.02.02-.01.01-.01.02-.01.03s.01.03 0 .04c0 .03-.03.05-.03.08 0 .01.01.02.02.03v.02.1c0 .02 0 .04.02.06 0 .01.02.02.02.03 0 .03.01.04.02.04.02.02.03.03.05.04.01.01.03.02.04.02.06.03.1.08.16.09.05.03.11.03.17.06.01 0 .03.01.04.01.02.01.04.01.06.01h.04c.02-.02.04-.01.05-.01.02 0 .04-.02.05-.03.03-.02.05-.05.08-.07.02-.02.04-.02.05-.02.02-.02.02-.06.03-.08.01-.01.02-.01.03-.02s.02-.02.02-.03v-.02c.01-.01.02-.02.03-.02.02-.01.03-.03.04-.05s.02-.05.01-.07z" fill="#cd3627"/><path d="M1.46 1.44c-.05.03-.12.05-.18.05-.03.01-.06.01-.1.01-.04-.03-.06-.05-.07-.08-.04-.05-.07-.11-.09-.17 0-.03 0-.05.01-.08 0 0 .01-.01.01-.02s.01-.02.01-.03c.01-.02.03-.03.05-.05.06-.03.12-.04.18-.05.03-.01.07-.01.1-.01.04.03.06.06.08.08.03.06.06.11.08.17 0 .03.01.06 0 .08l-.02.02c0 .01 0 .02-.01.03 0 .02-.03.04-.05.05zm.19-.02c.01-.01.01-.02.01-.03.01-.02 0-.03 0-.03 0-.02.03-.03.03-.04s-.01-.01-.01-.02.02-.01.02-.03c-.01-.02.01-.02.01-.03s-.01-.02-.01-.02c-.01-.01-.01-.01-.01-.02.02-.01.01-.03 0-.04-.01-.02 0-.02 0-.02 0-.01.01-.03 0-.03-.01-.01-.02-.01-.02-.01-.01-.01 0-.03-.01-.04-.02-.02-.01-.02-.01-.03s-.01-.02-.02-.03c-.02 0-.01-.01-.02-.01-.02-.01-.02-.02-.03-.02-.01-.01-.01-.02-.01-.02-.01-.01-.01-.02-.02-.02-.02 0-.01-.01-.02-.01C1.53.9 1.51.9 1.5.9c0-.01-.01-.03-.02-.03S1.46.86 1.45.86c0 0-.01-.01-.02 0-.01-.02-.03-.01-.04 0 0-.02-.02-.03-.03-.02-.01 0-.01.01-.02.01-.01-.01-.02-.02-.03-.02 0 0-.01.01-.01.02-.02-.01-.03-.01-.03-.01-.01-.01-.01-.01-.02-.01-.01.01-.02 0-.02 0-.01-.01-.03-.01-.03 0-.02.02-.02.01-.03.01-.02 0-.02.03-.03.03S1.12.86 1.11.86s-.01.01-.02.02-.01.01-.02.01-.03.01-.03.02c0 .02-.01.02-.01.02-.01 0-.02-.01-.02 0-.01.01 0 .02-.01.03C.98.97.98.99.97.99c-.02.02-.01.05-.02.05-.01.01-.02.01-.02.01-.01.01-.01.01-.01.02 0 0-.01.01-.01.02-.01.01-.01.02-.01.03-.01.02 0 .03 0 .04s-.03.02-.02.03v.02c0 .01-.02.02-.01.03 0 .02-.01.02-.02.03 0 .01.01.02.02.02 0 .01.01.02 0 .02-.01.02-.01.03 0 .04l.01.02c-.01.01-.01.03-.01.03.01.01.02.01.03.01.01.01-.01.04 0 .05 0 0 .01 0 .02.01-.01.02 0 .03.01.04h.02v.02h.02c.01.01.02.02.02.01v.03c.01 0 .02.01.03.01.01.03.03.04.04.03 0 .01.01.03.03.03 0 .01.01.01.02.01 0 0 .01.01.02 0 .01.02.03.01.04.01 0 .01.02.02.04.01.02.01.03.01.04.01s.01-.01.02-.02c.01.01.02.01.02.01.01.01.01.01.02.01h.02c.01.01.03.01.03 0 .02-.01.03-.01.03-.01.02 0 .02-.03.04-.03 0 0 .01.01.02.01.01.01.02-.01.02-.02.01-.01.01-.01.02-.01s.03 0 .03-.02c0-.01.01-.02.02-.01 0 0 .01 0 .02-.01 0-.01-.01-.02 0-.03h.02c.01-.01 0-.03.01-.03.03-.02.01-.04.02-.05s.02 0 .03-.01v-.02c.01 0 .01-.01.01-.02z" fill="#e45523"/><path d="M1.44 1.42c-.02.01-.05.02-.07.02-.05.01-.11.01-.16.01-.02 0-.02-.01-.02-.01-.04-.04-.08-.08-.11-.13-.01-.02-.02-.04-.02-.06-.01-.02-.01-.04 0-.06.01-.01.01-.02.02-.02 0-.01.01-.02.01-.02 0-.03.02-.05.04-.06s.04-.01.06-.02c.05-.01.11-.01.16-.01h.02c.04.05.08.09.11.14l.03.06c0 .02 0 .04-.01.06-.01.01-.01.02-.01.03-.01 0-.01.01-.02.01 0 .01 0 .01.01.02l-.04.04zm.12-.04v-.02-.02c-.01 0-.01-.01-.02-.01h.02c.01-.01 0-.02.01-.02.01-.01.02-.01.02-.01.01-.01 0-.01-.01-.02.02-.02.02-.02.01-.03s-.02-.01-.01-.02c.01-.02 0-.02 0-.02 0-.01.01-.01 0-.02 0-.01-.02 0-.02-.01-.01 0 .01-.01 0-.02-.01 0-.02 0-.02-.01.01-.01.01-.02.01-.03-.01-.01-.02-.01-.02-.02s.01-.02.01-.02c-.01-.01-.02-.01-.02-.01-.01-.01 0-.02-.01-.02h-.02c-.01.01-.01.01-.02 0v-.02-.02h-.02c-.01.01-.01 0-.02 0V.99.96l-.02.02c-.01.01-.02.01-.02.01.01-.02.01-.03.01-.04-.01 0-.02.01-.03.02s-.02.01-.02 0-.01-.02-.02-.01c-.02.01-.02.02-.03.02-.01-.02-.02-.03-.02-.03-.01-.01-.01.01-.02.01S1.25.94 1.24.94c-.01.01-.01.03-.02.03H1.2c-.01 0-.02.01-.02.02-.01-.01-.01-.01-.02-.01s0 .02-.01.02-.02-.01-.03-.01c-.01.01-.02.01-.02.02 0 .02-.01.02-.01.02h-.02l-.01.02c-.01 0-.02 0-.02.01.01.01.01.02.01.02-.02.01-.01.02-.01.02l-.02.02c-.01 0-.02.01-.02.01v.02c0 .01 0 .02.01.02.01.02 0 .02-.01.02-.01.01 0 .01 0 .02H.98c-.01.01-.01.02 0 .02-.02.02-.01.02-.01.03.02.01.02.01.02.02-.01 0-.01.01-.02.01 0 .01.01.02.01.01v.02c0 .01.02 0 .02.01.01.01-.01.02 0 .02.01.01.02.01.02.01-.01.01-.01.02-.01.03.01.01.02.01.02.02s-.01.02-.01.03h.03c0 .01-.01.02 0 .02h.02.02v.02.02c.01 0 .02.01.02 0h.02v.02.03c.01 0 .02-.01.02-.02.01-.01.01-.01.02-.01v.02c0 .01-.01.02-.01.03l.03-.03c.02-.01.02 0 .02 0 .01.01.01.02.02.02s.01-.01.02-.01c.02-.01.02-.01.02 0 .02.02.03.01.03.01.01 0 .02.01.02.01.01 0 .01-.02.02-.03h.02c.01 0 .02-.01.02-.01h.02c.01 0 .01-.02.02-.02 0 0 .01.01.02.01.01-.01.02-.01.02-.01.01-.01 0-.02 0-.02.01-.01.01-.01.02-.01.02.01.02 0 .02 0v-.02h.02v-.02c.01-.02 0-.02 0-.03.01-.01.02-.01.02-.02.01 0 .02-.01.02-.01z" fill="#7d3523"/><path d="M1.5 1.4c.01-.02.01-.03.01-.05 0 0 .02-.01.02-.02 0-.02.02-.03.02-.04s-.01-.02-.01-.03c.02-.02.02-.04.01-.05-.01 0-.02-.01-.02-.02v-.02c-.01-.02-.02-.03-.03-.04s-.01-.03-.01-.03c-.01-.01-.01-.01-.02-.01s-.02-.01-.02-.02c-.01-.01-.01-.03-.02-.04H1.4l-.02-.02c-.02 0-.02-.01-.03-.01-.02-.01-.03 0-.05.01-.01 0-.02 0-.02-.01h-.02c-.01 0-.02 0-.03.01-.02 0-.04 0-.05.01-.01 0-.01.01-.02.01h-.03c-.01 0-.02.01-.03.03 0 .02-.02.01-.03.02s0 .03 0 .04c-.02.01-.01.03-.01.04-.01.01-.03.01-.03.02 0 .02-.02.03-.02.04s.01.02.01.03c-.01.02-.01.04-.01.05.01.01.02.01.02.02.01.01.01.02.01.02 0 .02.02.03.02.05.01.01.01.02.02.03.02.01.03.01.03.02.01.02.01.04.03.04h.02c.01.02.01.02.02.02h.02c0 .01.01.01.01.02.02 0 .03-.01.05-.02.01 0 .02 0 .03.01.02.01.03 0 .04-.01h.05l.02-.02h.03c.01 0 .03-.01.03-.02.01-.02.02-.02.03-.03s0-.03.01-.03z" fill="#9b4626"/><path d="M2.44 1.72c-.09 0-.19.01-.28-.02-.08-.02-.15-.07-.22-.11l-.12-.06c-.04-.02-.07-.05-.1-.09v-.02a.81.81 0 0 1 .11.03l.18.08c.09.04.19.06.28.11.05.02.1.06.15.08z" class="c"/><path d="M1.12 1.79c-.01.05-.03.1-.05.15-.01.04-.04.08-.06.12-.02.03-.04.06-.07.09l-.05.05-.09.09C.85 2.2.88 2.1.93 2c.02-.05.06-.1.08-.15.02-.04.03-.07.05-.1.01-.01.02-.03.03-.04.02-.01.02-.01.02 0 .02.02.01.05.01.08z" class="i"/><path d="M.85 2.12c-.01.06-.03.12-.05.17.08-.11.14-.24.21-.36.04-.07.09-.14.1-.22-.07.02-.11.07-.13.13-.01.03-.02.07-.04.09-.01.02-.03.03-.04.05-.03.04-.04.09-.05.14z" class="j"/><path d="M1.74 1.89c0 .03 0 .05.01.07.01.01.02.02.02.03.01.01.01.03.02.04 0 .02.01.04.02.06.02.01.03.02.04.03.06.05.14.09.21.11-.02-.04-.04-.07-.05-.11-.02-.03-.03-.07-.05-.11-.01-.02-.03-.04-.04-.05-.06-.07-.13-.13-.21-.17.02.03.03.07.03.1z" class="k"/><g fill="#e7a612"><path d="M1.85 2c-.03-.04-.07-.08-.1-.12a1.1 1.1 0 0 1 .28.29l.03.06-.09-.09-.06-.06c-.02-.03-.04-.06-.06-.08z"/><path d="M1.76 1.92l.12.17c.01.02.03.04.04.06.03.04.09.06.14.08-.07-.06-.14-.12-.2-.19-.03-.04-.06-.09-.1-.12z"/></g><path d="M2.29 2.18c0-.03-.02-.06-.03-.08-.04-.06-.1-.09-.16-.13-.17-.11-.32-.25-.46-.39-.01.02 0 .04 0 .07.04.09.1.17.17.24a.82.82 0 0 0 .25.16c.08.03.17.06.23.13z" class="d"/><path d="M1.69 1.65c-.03-.02-.05-.04-.06-.07l.17.09c.05.02.1.05.15.09.05.03.09.07.13.1.04.05.09.09.13.14a.38.38 0 0 1 .08.17c-.02-.05-.06-.1-.11-.13s-.11-.05-.16-.08a.7.7 0 0 1-.17-.13c-.06-.05-.1-.12-.16-.18z" class="c"/><path d="M1.72 1.53c-.01-.01-.03-.01-.04-.02-.01.01 0 .03.01.04.02.02.04.05.06.07.03.05.06.09.09.13l.09.09c.02.02.05.03.08.05s.06.03.09.05c.08.03.16.04.24.04l-.15-.15-.12-.13c-.1-.09-.22-.14-.35-.17z" class="l"/><path d="M1.33 1.82h-.02c-.02.01-.03.02-.04.04-.06.09-.09.19-.12.29-.02.04-.04.08-.04.13-.01.03-.01.05-.01.08-.01.05-.01.09-.01.14.01 0 .01-.01.02-.02v.03c.03-.01.05-.03.07-.05a.94.94 0 0 0 .17-.33c.01-.03.02-.07.02-.1.01-.06-.02-.12-.02-.19.02.04.02.07.02.11.01-.02.01-.05.01-.07-.01-.02-.03-.04-.05-.06z" class="f"/><path d="M1.32 1.78c-.07.11-.09.24-.12.37.03-.05.06-.11.08-.17.01-.04.02-.09.04-.13 0 .01.01.01.02.01 0 0 .01 0 .02-.01v.03c0 .15-.04.29-.1.42.02-.06.05-.12.05-.19-.02.1-.05.2-.12.29-.02.02-.03.04-.05.06l-.03.03c.01-.01.03-.02.05-.03-.01.01-.01.03-.02.04.02-.01.03-.02.04-.03.02-.02.03-.04.05-.06s.03-.04.05-.06c.02-.03.02-.07.04-.1.01-.05.03-.09.04-.14.01-.04.02-.09.02-.13V1.9c0-.05-.02-.09-.04-.12h-.02z" class="g"/><path d="M1.01 1.73c-.01-.01-.02 0-.02 0-.02.01-.03.02-.04.04-.06.08-.09.19-.12.29-.02.04-.03.08-.04.13-.01.02-.01.05-.01.08-.01.04-.01.09-.01.14.01 0 .02-.01.02-.02v.03c.03-.01.05-.03.07-.05.08-.1.13-.21.17-.33.01-.03.02-.07.02-.1.01-.06-.01-.12-.02-.19.02.03.02.07.02.11.01-.02.01-.05.01-.07-.01-.03-.03-.05-.05-.06z" class="f"/><path d="M1 1.69c-.07.11-.09.24-.12.37.04-.05.06-.11.08-.17.01-.04.02-.09.04-.13 0 .01.01.01.02.01s.01-.01.02-.01v.03c0 .14-.03.29-.1.42.02-.06.05-.12.05-.19-.02.1-.05.2-.12.28-.01.03-.03.05-.05.07l-.03.03c.02-.01.03-.02.05-.03-.01.01-.01.02-.02.04.02-.01.03-.02.04-.03.02-.02.03-.04.05-.06s.03-.04.05-.06c.02-.03.03-.07.04-.1.01-.05.03-.09.04-.14.01-.04.02-.09.02-.13v-.08c0-.05-.02-.09-.04-.12H1z" class="g"/><path d="M1.24 1.76h-.03c-.02.04-.02.07-.03.1-.02.09-.06.19-.12.27-.01.02-.03.04-.03.07v.04c.01.02.01.05.02.08-.01.03 0 .07.02.1.01-.03.03-.07.04-.11l.03-.09c.02-.04.04-.07.05-.11.02-.05.03-.11.05-.16a.26.26 0 0 0 .03-.11c0-.03-.01-.05-.02-.07z" class="m"/><path d="M.97 1.97L1 1.91c.02-.02.04-.05.07-.07.01-.02.03-.03.05-.05.02-.01.03-.03.05-.05.01.01.02.01.04.01 0 .07 0 .14-.01.2-.02.07-.06.13-.1.19-.03.04-.06.09-.11.12-.03-.08-.04-.16-.03-.23 0-.02 0-.04.01-.06z" class="b"/><path d="M1.83 2.13c-.01-.03-.03-.06-.05-.08 0 .06 0 .12-.01.18.01.06.03.1.07.13.01.01.03.02.04.02.01-.01.01-.02.01-.03-.01-.03-.02-.06-.02-.09-.01-.02-.01-.04-.02-.06 0-.02-.01-.05-.02-.07z" class="r"/><path d="M1.86 2.29c.01 0 .01-.01.01-.02-.01-.05-.03-.09-.06-.14-.02-.04-.03-.1-.02-.14.01.03.01.07.03.1.01.01.02.03.03.04l.03.08c.01.03.02.05.02.08s-.01.06 0 .09c-.02 0-.04-.02-.05-.03-.02-.03-.02-.05-.02-.08.02.01.03.01.03.02z" fill="#e0a31d"/><path d="M1.56 2.44v-.13c.01-.03.02-.06.02-.1s-.02-.07-.02-.11a.54.54 0 0 1-.08.21.32.32 0 0 0 .03.14c.01.01.01.02.02.02 0 .01.01.01.02.01.01-.02.01-.03.01-.04z" class="s"/><g class="n"><path d="M1.5 1.73c.02.01.03.02.04.03.02.02.02.05.02.07l.04.25c-.02-.02-.03-.04-.05-.07-.01-.04-.03-.08-.04-.11l-.03-.08c-.01-.02-.01-.05 0-.07 0-.01 0-.02.01-.02z"/><path d="M1.65 2.24c-.01.07-.04.13-.07.19-.01.02-.02.03-.03.05-.01-.01-.01-.02-.01-.03-.01-.07 0-.13.01-.19.01-.1.02-.19.01-.28l.06.12c.02.05.03.1.03.14z"/></g><path d="M1.49 1.83c.03.05.05.11.07.16 0 .02.01.04.01.06v.06c-.01.03-.01.06-.02.09 0 .02-.01.03-.01.05-.03.06-.05.13-.08.19-.01.01-.02.01-.02.01-.01-.01-.01-.01-.01-.02-.04-.08-.07-.16-.08-.25-.01-.04-.01-.08-.01-.12.01-.1.02-.19.06-.27 0-.01.01-.02.01-.02.01-.01.02-.01.03 0 .03.01.04.03.05.06z" class="o"/><path d="M1.42 2.36c-.01-.02-.02-.05-.02-.08-.01-.02-.01-.05-.02-.07 0-.03-.01-.05-.01-.07v-.06c0-.03-.01-.06-.01-.09 0-.08.03-.15.06-.22.01.01.02.03.03.04 0 .02.01.04.01.06.02.08.04.16.04.24v.12c-.01.01-.01.03-.01.05-.01.02-.01.04-.02.06l-.03.09c0-.02-.01-.04-.02-.07z" class="p"/><path d="M1.59 1.68c-.01 0-.02-.01-.03-.01-.01.01-.01.03-.02.04 0 .11.01.23.04.34.03.08.08.16.12.24a.37.37 0 0 1 .07.14c.04-.12.03-.26.03-.39 0-.06 0-.12-.03-.18-.02-.02-.03-.04-.05-.06l-.13-.12z" class="h"/><path d="M1.07 2.36c0-.03.01-.06.02-.09.02-.06.05-.11.07-.17.02-.04.04-.08.05-.12a.69.69 0 0 0 .03-.08c.01-.05.01-.09.01-.14.02.02.03.05.03.07v.09c-.03.14-.08.28-.16.41-.01.02-.03.05-.04.07-.01-.01-.01-.02 0-.04z" class="b"/><path d="M2.25 1.96c-.04-.02-.09-.02-.14-.04-.03-.01-.06-.03-.09-.05s-.05-.04-.08-.06c-.02-.02-.05-.05-.07-.08l-.14-.17c-.02-.01-.03-.02-.05-.03a.93.93 0 0 0 .26.33.56.56 0 0 0 .38.12c-.03 0-.06-.01-.09-.02h.02z" class="q"/><path d="M2 1.99c.05.03.11.05.16.06-.09-.03-.17-.08-.25-.14-.05-.04-.11-.08-.16-.14a.42.42 0 0 1-.11-.18c-.01.05 0 .09.01.13.02.04.05.07.08.1.08.09.18.17.29.22.08.04.17.06.24.11-.07-.08-.18-.09-.26-.16z" class="e"/><path d="M1.72 1.44c-.01.01 0 .02.01.03s.02.03.04.04c.01.02.03.03.05.04l.2.12c.03.02.07.04.1.05a.22.22 0 0 0 .08.01c.02.01.05.01.08.01.04 0 .07-.01.11-.02-.02 0-.03-.01-.04-.01.01-.01.01-.01.02-.01l-.09-.03c-.02-.01-.04-.02-.06-.02-.02-.01-.05-.01-.07-.01a.58.58 0 0 1-.14-.05c-.04-.02-.09-.03-.13-.06-.03-.02-.05-.05-.08-.07l-.08-.03z" fill="#f7a906"/><path d="M.16.72c.06.07.12.14.2.19.07.04.15.06.23.09.04.01.08.03.12.04.05.02.09.02.13.02.01-.01.03-.01.02-.02C.83 1.01.8 1 .76.99.71.96.65.94.59.91L.32.77C.27.75.21.74.16.72z" class="c"/><path d="M1 1.74c-.03.04-.06.08-.08.13-.02.04-.03.09-.04.13s-.02.07-.02.11c-.01.02-.01.04-.01.07v.13c.03-.1.09-.19.12-.29l.06-.17c.01-.03.03-.06.04-.09 0-.02.01-.04.01-.06-.04-.01-.06.01-.08.04z" class="i"/><path d="M.94 2.16c-.04.05-.07.1-.09.15.02-.14.08-.27.12-.4.02-.08.04-.16.09-.22h.02c.02.06 0 .13-.03.19-.01.03-.03.05-.03.09-.01.02-.01.03-.01.05-.01.05-.05.09-.07.14z" class="j"/><path d="M.5 1.35c-.02.01-.04.03-.06.04H.4c-.01.01-.02.01-.03.02-.02.01-.04.01-.06.02-.02 0-.04 0-.05-.01a.53.53 0 0 1-.22-.08c.03-.01.07-.02.11-.03.04-.02.08-.03.12-.04.02 0 .04-.01.06-.01.09 0 .18.01.26.04-.03.01-.06.03-.09.05z" class="k"/><path d="M0 1.11c.07-.01.14.01.2.03.2.05.4.06.61.07-.02.02-.04.03-.06.04-.09.04-.19.06-.29.05a.96.96 0 0 1-.29-.08A1.22 1.22 0 0 0 0 1.15v-.04z" class="d"/><path d="M.72 1.23c.03 0 .06 0 .09-.01-.06-.03-.12-.05-.18-.06L.46 1.1.29 1.08c-.06 0-.12-.01-.19 0-.03 0-.07.01-.1.02v.02a.34.34 0 0 1 .1.01l.17.06c.06.02.13.04.2.04.08 0 .16-.01.25 0z" class="c"/><path d="M.78 1.12c.02 0 .03.01.04.01 0 .02-.02.02-.03.02-.03.01-.06.01-.09.01l-.17.02c-.04 0-.08 0-.12-.01-.03 0-.06-.01-.09-.02s-.07-.02-.1-.04C.15 1.08.09 1.03.03.97l.21.01C.3.98.36.97.42.97c.13.02.25.08.36.15z" class="l"/><path d="M.83 1.6c.02.01.02.01.02.02v.05c-.03.11-.09.2-.13.29-.03.04-.05.08-.07.12-.02.02-.04.04-.05.06-.04.03-.07.07-.1.1-.01-.01-.01-.02-.01-.03 0 .01-.01.02-.01.02-.02-.02-.02-.06-.01-.09.01-.12.06-.24.12-.34l.06-.09c.04-.04.1-.07.15-.11-.03.01-.06.03-.09.06a.12.12 0 0 1 .05-.05c.02-.01.05-.01.07-.01z" class="f"/><path d="M.87 1.58c-.03.13-.12.23-.19.34a.51.51 0 0 1 .07-.17c.02-.04.05-.08.07-.12-.01 0-.02 0-.02-.01-.01 0-.01-.01-.01-.02-.01 0-.01.01-.02.02-.11.1-.19.23-.24.37.03-.06.06-.13.1-.17-.06.08-.11.17-.13.27v.09c0 .01-.01.03-.01.04-.01-.02-.01-.04-.01-.05-.01.01-.01.02-.02.03v-.05c0-.02.01-.05.01-.08 0-.02 0-.04.01-.07s.03-.06.05-.1.04-.08.07-.12c.02-.04.05-.07.08-.1l.06-.06c.04-.03.08-.05.12-.06 0 .01 0 .02.01.02z" class="g"/><path d="M.94 1.63l.02.02c-.02.04-.04.06-.05.08-.06.09-.1.18-.12.28-.01.02-.02.05-.03.07-.01.01-.02.02-.03.02-.03.02-.05.04-.07.05-.02.02-.06.04-.09.05.02-.03.03-.07.05-.1s.03-.06.05-.09c.01-.03.03-.07.04-.11l.09-.15c.02-.03.03-.07.06-.09.02-.02.04-.03.07-.03z" class="m"/><path d="M.97 1.97c.01-.02.01-.04.02-.06 0-.04.01-.07.01-.1v-.07-.08c-.01.01-.03 0-.03-.01-.05.04-.11.08-.14.14-.04.06-.06.13-.08.19-.01.06-.02.12-.01.17a.45.45 0 0 0 .19-.14c.02-.01.03-.02.04-.04z" class="b"/><path d="M.27 1.44c.03-.01.06-.02.09-.01a.8.8 0 0 0-.13.13c-.04.03-.09.04-.13.03-.02 0-.04 0-.06-.01.01-.02.02-.02.03-.03.02-.01.05-.03.08-.05.01-.01.03-.02.05-.03s.05-.02.07-.03z" class="r"/><g class="n"><path d="M.78 1.42C.77 1.41.75 1.4.73 1.41c-.02 0-.04.01-.06.03l-.21.14c.03 0 .05-.01.08-.01.04-.01.08-.03.12-.05.02-.01.04-.01.07-.03.02-.01.04-.02.06-.04v-.02z"/><path d="M.3 1.66c-.04.04-.06.11-.08.17-.01.02-.02.04-.02.05.01 0 .02 0 .03-.01.06-.03.09-.08.13-.13a1.26 1.26 0 0 1 .2-.2c-.04.01-.09.02-.13.04-.05.02-.09.04-.13.08z"/></g><path d="M.72 1.49c-.06.01-.11.04-.17.06-.01.01-.03.02-.05.03-.01.01-.02.03-.04.04-.02.02-.04.05-.06.07-.01.02-.01.03-.02.05l-.09.19c0 .01 0 .01.01.02.01 0 .01 0 .02-.01a.67.67 0 0 0 .23-.1c.04-.03.07-.06.1-.09.07-.06.13-.14.16-.22 0-.01.01-.02 0-.03S.8 1.49.79 1.49c-.02-.02-.05-.01-.07 0z" class="o"/><path d="M.37 1.91c.03-.01.06-.03.08-.04.02-.02.04-.03.06-.04s.04-.03.06-.04l.04-.04c.03-.02.06-.04.08-.06.06-.05.09-.12.12-.19-.02 0-.03.01-.05.01l-.06.03c-.07.04-.14.08-.2.13-.02.03-.05.06-.08.09-.01.01-.02.02-.03.04-.01.01-.02.03-.03.05-.02.03-.04.06-.05.09.01-.02.04-.03.06-.03z" class="p"/><path d="M.76 1.32c.01 0 .02.01.02.02.01.01 0 .02-.01.03a.95.95 0 0 1-.28.2c-.08.04-.17.05-.25.07a.66.66 0 0 0-.15.05c.06-.11.16-.2.26-.28.05-.04.09-.09.16-.1h.07c.06-.01.12 0 .18.01z" class="h"/><path d="M.61 2.16c.03-.02.04-.05.06-.08.03-.05.05-.11.07-.16.02-.04.03-.08.05-.12l.05-.08c.02-.04.06-.07.09-.1-.03 0-.05.01-.07.03-.03.01-.04.04-.06.06a1.11 1.11 0 0 0-.2.39c-.01.03-.01.06-.03.08.02 0 .03-.01.04-.02z" class="b"/><path d="M.11 1.02c.04.02.08.05.12.08l.1.03c.03.01.06.01.09.02h.12c.07-.01.14-.01.21-.01.02 0 .04 0 .06.01-.14.04-.28.06-.41.03a.57.57 0 0 1-.36-.2c.03.02.05.04.08.06 0-.01-.01-.01-.01-.02z" class="q"/><path d="M.25 1.23C.2 1.21.15 1.18.1 1.14a.88.88 0 0 0 .27.1l.21.02a.54.54 0 0 0 .22-.04c-.04.05-.07.07-.11.08s-.08.01-.12.01c-.13 0-.25-.01-.37-.06-.07-.03-.13-.07-.2-.1v-.01c.09.02.16.08.25.09z" class="e"/><path d="M1.56.77c.03-.04.06-.08.08-.13.02-.04.03-.08.04-.13.01-.03.02-.07.03-.11V.33c0-.04 0-.09.01-.13l-.13.29-.06.17c-.01.03-.03.06-.04.09 0 .02 0 .04-.01.06.01.02.01.02.02.02a.09.09 0 0 0 .06-.06z" class="i"/><path d="M1.63.35A.99.99 0 0 0 1.72.2c-.03.14-.09.27-.13.4-.02.08-.04.16-.09.22h-.02c-.02-.06 0-.13.03-.18.01-.03.03-.06.04-.1V.49c.01-.05.05-.09.08-.14z" class="j"/><path d="M2.06 1.16c.02-.01.04-.03.06-.04h.04c.01 0 .02-.01.03-.01.02-.01.04-.02.06-.02.02-.01.04 0 .06 0 .07.01.15.04.22.08l-.12.03c-.04.02-.07.03-.11.04-.03.01-.05.01-.07.01-.09 0-.18-.01-.26-.04.03-.01.06-.03.09-.05z" class="k"/><g fill="#e7a612"><path d="M2.21 1.17c-.05.01-.1 0-.15.01.13.02.27.03.4 0 .02 0 .05 0 .06-.01-.04 0-.08 0-.13-.01h-.08c-.03.01-.06.01-.1.01z"/><path d="M2.1 1.16c.06-.02.13-.02.2-.03.02 0 .05-.01.07-.01a.27.27 0 0 1 .15.05l-.27-.02c-.05.01-.1.02-.15.01z"/></g><path d="M2.58 1.4h-.02c-.07.01-.13-.01-.2-.03-.2-.05-.4-.06-.6-.07.01-.02.03-.03.05-.04a.61.61 0 0 1 .3-.04c.09 0 .19.03.28.07.06.03.12.06.19.08v.03z" class="d"/><path d="M1.85 1.29c-.03-.01-.07-.01-.09.01l.17.06c.06.02.12.03.18.05.05.01.1.01.16.02.06 0 .13.01.19 0 .04 0 .08-.01.12-.02v-.02c-.04.01-.08 0-.11-.01-.06-.01-.12-.04-.17-.06-.07-.02-.14-.03-.21-.04l-.24.01z" class="c"/><path d="M1.78 1.4c-.01-.01-.03-.02-.04-.02 0-.02.02-.02.04-.02s.05-.01.08-.01l.17-.02c.04 0 .08 0 .12.01.03 0 .06.01.09.02.04.01.07.03.1.04a.52.52 0 0 1 .19.14c-.07 0-.14-.01-.21-.01-.06.01-.12.01-.18.01-.13-.01-.25-.08-.36-.14z" class="l"/><path d="M1.73.91C1.72.9 1.71.9 1.71.89c0-.02 0-.03.01-.05.02-.1.08-.19.13-.29l.06-.12.06-.06c.03-.03.06-.07.09-.1.01.01.01.02.01.03.01-.01.01-.02.02-.02.01.02.01.06.01.09-.01.12-.07.24-.13.35-.02.03-.03.05-.06.08-.04.04-.1.07-.15.11a.18.18 0 0 0 .09-.06c-.01.02-.02.04-.05.05-.02.01-.04.02-.07.01z" class="f"/><path d="M1.69.93c.03-.13.12-.23.19-.34a.51.51 0 0 1-.07.17c-.02.04-.05.08-.06.12.02.01.02.02.02.03.01 0 .02-.01.02-.02a.79.79 0 0 0 .24-.36c-.02.06-.05.12-.1.16.06-.08.11-.17.13-.27 0-.03 0-.06.01-.09V.29c.01.02.01.04.01.06.01-.02.01-.03.02-.04v.05c0 .03 0 .05-.01.08 0 .02 0 .05-.01.07-.01.03-.03.07-.05.1l-.06.12-.09.11c-.02.02-.04.04-.06.05-.03.03-.07.05-.11.06 0-.01-.01-.02-.02-.02z" class="g"/><path d="M1.62.88S1.61.87 1.61.86c.01-.03.03-.06.04-.08a1.11 1.11 0 0 0 .13-.27c0-.03.01-.06.03-.08 0-.01.01-.02.02-.02l.08-.05c.02-.02.05-.04.08-.05-.01.03-.03.07-.05.1-.01.03-.03.06-.04.09l-.05.11-.09.15c-.01.04-.03.07-.06.1-.02.01-.04.02-.06.02h-.02z" class="m"/><path d="M1.6.54c-.01.02-.02.04-.02.07-.01.03-.02.06-.02.09s.01.05.01.07c0 .03-.01.05-.01.08.01 0 .03 0 .04.01.05-.04.1-.08.13-.14a.64.64 0 0 0 .08-.19c.01-.06.02-.11.01-.17a.45.45 0 0 0-.19.14c-.01.01-.03.03-.03.04z" class="b"/><path d="M2.29 1.07c-.03.01-.06.02-.09.01.05-.04.09-.08.13-.12.05-.04.09-.05.14-.04.01 0 .03.01.05.01-.01.02-.02.02-.02.03-.03.01-.06.03-.08.05l-.06.03c-.02.01-.04.02-.07.03z" class="r"/><path d="M2.44.98c0 .01-.01.01-.01.02-.04.03-.1.04-.14.05-.05.02-.1.04-.13.09.03-.02.06-.04.1-.05.01-.01.03-.01.05-.01l.08-.03c.02-.01.05-.02.07-.04s.04-.05.07-.06C2.51.93 2.49.93 2.47.93c-.03.01-.05.02-.07.04.02.01.03.01.04.01z" fill="#e0a31d"/><path d="M2.34.66l-.09.09c-.02.02-.04.05-.06.07-.03.03-.07.04-.1.07a.54.54 0 0 0 .1-.2c.03-.04.08-.07.13-.08h.02c.01 0 .02.01.02.01 0 .02-.01.03-.02.04z" class="s"/><g class="n"><path d="M1.78 1.09c.02.01.03.02.05.02.02-.01.05-.02.06-.04L2.1.93c-.03 0-.05.01-.08.01-.04.02-.07.04-.11.05l-.08.03c-.02.01-.04.02-.05.05-.01 0-.01.01-.01.02z"/><path d="M2.26.86c.04-.05.07-.12.09-.18 0-.02.01-.04.01-.05-.01 0-.02 0-.03.01-.05.03-.09.08-.13.13a.76.76 0 0 1-.2.2c.04-.01.09-.02.14-.04.04-.01.08-.04.12-.07z"/></g><path d="M1.85 1.02c.05-.01.11-.03.16-.06.02-.01.03-.02.05-.03L2.1.89c.02-.02.04-.05.06-.07.01-.02.02-.03.02-.05.04-.06.07-.12.09-.19-.01-.02-.02-.01-.03-.01-.08.03-.16.06-.23.11-.04.02-.07.05-.1.08-.06.06-.12.14-.16.23v.02c.01.01.02.01.02.02.02.01.05 0 .08-.01z" class="o"/><path d="M2.19.61a.3.3 0 0 0-.08.04c-.02.01-.04.02-.06.04l-.06.03-.04.04c-.03.02-.05.04-.08.06-.05.05-.09.12-.12.19.02 0 .04 0 .05-.01l.06-.03c.07-.04.14-.08.2-.13l.08-.08c.01-.02.02-.03.03-.05.02-.01.03-.03.04-.05.01-.03.03-.05.05-.08-.02.01-.05.02-.07.03z" class="p"/><path d="M1.8 1.19c-.01 0-.02 0-.02-.01-.01-.02 0-.03.01-.04a.95.95 0 0 1 .28-.2c.08-.03.17-.05.26-.07a.88.88 0 0 0 .15-.05c-.07.11-.17.2-.27.28-.04.05-.09.09-.15.1-.03.01-.05.01-.08.01-.06 0-.12 0-.18-.02z" class="h"/><path d="M1.55.84c.01-.06 0-.12.01-.18.01-.08.06-.16.13-.2-.04.03-.07.08-.09.12-.02.08 0 .18-.04.25z" fill="#fdd633"/><path d="M1.95.35c-.02.02-.04.05-.06.08L1.82.6c-.01.04-.03.07-.05.11-.01.03-.03.06-.04.08-.03.04-.06.07-.1.1.03 0 .06-.01.08-.03.02-.01.04-.03.05-.06a1.11 1.11 0 0 0 .2-.39c.01-.03.01-.06.03-.08-.01.01-.03.01-.04.03z" class="b"/><path d="M2.46 1.49c-.05-.02-.08-.05-.13-.08l-.1-.03c-.03 0-.06-.01-.09-.01-.04-.01-.08-.01-.11 0-.08 0-.15.01-.22 0-.02 0-.04 0-.05-.01a.94.94 0 0 1 .41-.03c.13.02.27.09.35.2-.02-.02-.05-.04-.08-.05.01 0 .01.01.02.01z" class="q"/><path d="M2.31 1.29c.06.01.11.04.15.08a.62.62 0 0 0-.27-.09.76.76 0 0 0-.21-.03c-.07 0-.15.01-.21.04a.19.19 0 0 1 .11-.07.36.36 0 0 1 .11-.02c.13 0 .26.02.37.07.08.03.14.07.22.09v.01c-.09-.01-.18-.07-.27-.08z" class="e"/><path d="M2.54 1.79c-.03.01-.06.01-.09.01-.07-.01-.13-.06-.19-.09-.17-.11-.36-.18-.55-.25.02-.01.04-.02.07-.02a.57.57 0 0 1 .29.04 1.07 1.07 0 0 1 .25.16c.07.06.13.13.22.15z" class="d"/><path d="M2.25 1.61c.04.03.08.07.11.12a.69.69 0 0 0-.22-.16.88.88 0 0 0-.2-.09.33.33 0 0 0-.22-.02l.02-.02c.03-.02.07-.03.11-.03l.12.03a.8.8 0 0 1 .33.17c.07.05.12.12.2.17-.1-.03-.16-.13-.25-.17z" class="e"/><path d="M1.44.72c.02-.05.03-.1.05-.14.02-.05.04-.08.07-.12.02-.03.04-.07.06-.09s.03-.04.05-.05a.9.9 0 0 1 .09-.1c-.05.09-.08.19-.12.29l-.09.16c-.01.03-.02.06-.04.09-.01.02-.03.03-.04.05h-.02C1.43.78 1.44.75 1.44.72z" class="i"/><path d="M1.71.39c.01-.06.03-.11.05-.17-.08.11-.14.24-.21.36-.04.07-.08.14-.1.22.07-.01.11-.07.13-.13.01-.03.03-.06.04-.09l.04-.04c.03-.05.04-.1.05-.15z" class="j"/><path d="M.82.62C.82.6.82.57.81.55.8.54.79.53.79.52.78.51.78.5.78.49.77.46.76.44.75.43.74.41.72.4.71.39A.53.53 0 0 0 .5.28c.02.04.04.07.05.11C.57.43.58.47.6.5.61.52.63.54.64.55.7.62.77.68.85.72.83.69.82.65.82.62z" class="k"/><path d="M.27.34C.28.36.29.39.3.41c.04.06.11.1.17.13.17.11.31.26.46.4C.93.91.93.89.92.87.89.77.83.69.75.62A1.07 1.07 0 0 0 .5.46C.42.43.33.4.27.34z" class="d"/><path d="M.88.86C.9.88.92.9.93.93.87.91.82.88.77.85.71.82.66.79.61.75.57.72.53.68.48.65.44.6.39.56.35.51A.38.38 0 0 1 .27.34.3.3 0 0 0 .39.47c.05.03.1.05.16.08a1.01 1.01 0 0 1 .16.13c.06.06.11.13.17.18z" class="c"/><path d="M.84.98C.86.99.87.99.88 1 .89.99.88.97.87.96.85.94.83.91.82.89.78.85.75.8.72.76.69.73.67.7.63.67.61.65.58.64.55.62.52.61.49.59.46.58.38.55.31.53.23.53l.14.15.12.14c.1.08.23.13.35.16z" class="l"/><path d="M1.23.69c.02.01.02 0 .03 0 .01-.01.02-.02.03-.04.06-.08.09-.19.12-.29.02-.04.04-.08.05-.13V.15c.01-.04.01-.09.01-.14l-.02.02V0c-.02.01-.05.03-.07.05-.08.1-.13.21-.17.33-.01.03-.02.07-.02.1 0 .06.02.13.02.19a.36.36 0 0 1-.02-.11c-.01.02-.01.05 0 .07 0 .03.02.05.04.06z" class="f"/><path d="M1.24.73c.08-.11.09-.24.12-.37a.51.51 0 0 0-.07.17c-.02.04-.02.09-.05.13 0-.01-.01-.01-.02-.01C1.2.65 1.2.64 1.2.64c0-.15.04-.3.11-.43-.03.06-.05.12-.05.19.02-.1.05-.2.11-.28.02-.03.04-.05.06-.07l.03-.03c-.02.01-.04.02-.05.03 0-.01.01-.02.01-.04-.01.01-.02.02-.03.04l-.06.06c-.02.01-.03.03-.04.05-.02.03-.03.07-.04.1-.02.05-.04.09-.05.14-.01.04-.01.09-.02.13v.09c.01.04.02.08.04.12.01-.01.01-.01.02-.01z" class="g"/><path d="M1.33.75h.02c.02-.03.02-.06.03-.09.02-.1.06-.19.12-.28.01-.02.03-.04.03-.07V.28c0-.03-.01-.06-.01-.09s-.01-.07-.03-.1c-.01.04-.02.07-.04.11l-.03.09-.05.11c-.02.05-.03.11-.05.17-.02.03-.03.07-.03.11 0 .02.01.04.02.06.01.01.01.01.02.01z" class="m"/><path d="M1.59.54L1.56.6c-.02.02-.04.05-.06.07s-.04.03-.06.05-.03.04-.05.06C1.38.76 1.37.76 1.36.76a.45.45 0 0 1 .01-.2c.01-.07.05-.13.09-.19.03-.04.07-.09.11-.11.03.07.04.15.03.23 0 .01 0 .03-.01.05z" class="b"/><path d="M1 .07V.2C.99.23.98.27.99.3c0 .04.01.07.01.11.01-.07.04-.14.08-.21.01-.05 0-.1-.03-.14 0-.01-.01-.02-.02-.02 0-.01-.01-.01-.02-.01C1 .05 1 .06 1 .07z" class="s"/><path d="M1.06.78C1.04.77 1.03.76 1.02.75 1 .73 1 .71 1 .68L.97.43c.01.02.03.05.04.07.02.04.03.08.04.12.01.02.02.04.03.07.01.02.01.05 0 .07 0 .01 0 .02-.01.02z" class="n"/><path d="M1.07.68a.44.44 0 0 1-.06-.16C1 .5 1 .48.99.46.99.45.99.43 1 .41c0-.04 0-.07.01-.1 0-.01.01-.03.01-.05l.09-.19c.02 0 .02.01.02.01.04.08.07.16.09.25v.13a.66.66 0 0 1-.06.27c-.02.02-.03.02-.03.01a.09.09 0 0 1-.06-.06z" class="o"/><path d="M1.14.15c.02.02.02.05.03.08 0 .03.01.05.01.08.01.02.01.04.01.06v.06c0 .03.01.06.01.1 0 .07-.03.14-.06.21C1.13.73 1.12.72 1.12.7 1.11.68 1.1.66 1.1.64 1.08.56 1.06.48 1.06.4c0-.04 0-.08.01-.11V.23c.01-.02.01-.04.02-.06l.03-.09c0 .02.01.05.02.07z" class="p"/><path d="M.97.83c.01.01.02.01.03.01.02-.01.02-.02.02-.04 0-.11-.01-.23-.04-.34C.95.38.9.3.86.23.83.18.8.13.79.08.76.21.76.34.76.47.76.53.76.6.8.65.81.67.83.69.84.71.88.75.92.8.97.83z" class="h"/><path d="M1.41.78c.03-.05.09-.09.12-.13a.25.25 0 0 0 .06-.23.32.32 0 0 1-.03.14c-.05.08-.13.12-.16.2 0 .01 0 .02.01.02z" fill="#fdd633"/><path d="M1.49.15c.01.03 0 .06-.02.1L1.4.41c-.02.04-.04.08-.05.12l-.03.08c-.01.05-.01.1-.01.14C1.29.73 1.28.7 1.28.68c0-.03 0-.06.01-.09.02-.14.07-.28.15-.41.02-.02.03-.05.04-.07.01.01.01.03.01.04z" class="b"/><path d="M.31.55c.04.02.1.02.14.04.03.01.06.03.09.05S.59.68.62.7a.27.27 0 0 1 .07.08l.15.17c.01.01.02.03.04.03C.82.85.74.74.63.65.52.57.38.52.24.53a.24.24 0 0 1 .09.02H.31z" class="q"/><path d="M.56.52A.44.44 0 0 0 .4.46C.49.49.57.54.65.6a.7.7 0 0 1 .16.14.44.44 0 0 1 .12.18.19.19 0 0 0-.02-.13C.89.76.86.73.84.7.75.6.66.52.54.47.46.43.37.41.3.36.37.44.48.45.56.52z" class="e"/><path d="M.84 1.07c.01-.01 0-.02-.01-.03S.81 1.01.79 1C.78.99.76.98.75.96L.54.84C.51.82.48.8.44.79.42.78.39.78.37.78.34.77.31.77.28.77S.21.78.18.79C.19.79.2.8.22.8.21.81.2.81.19.82.22.82.25.83.28.84.3.85.32.86.34.86.36.87.39.87.42.88.46.88.51.9.55.92.6.94.64.96.68.98a.55.55 0 0 0 .09.07c.02.01.05.02.07.03z" fill="#f7a906"/><path d="M1.47.82h-.03C1.43.81 1.43.8 1.43.78c.02-.11.04-.22.09-.33a1.66 1.66 0 0 1 .16-.21c.03-.04.07-.09.09-.14a1.71 1.71 0 0 1-.03.39c-.01.06-.02.13-.06.17-.02.02-.04.04-.06.05-.05.04-.09.08-.15.11z" class="h"/></g></svg>