<svg width="9" height="9" viewBox="0 0 9 9" fill="none" xmlns="http://www.w3.org/2000/svg">
<g clip-path="url(#clip0)">
<path d="M4.14878 7.00022L0.144512 2.99413C0.0512195 2.90083 -4.03797e-08 2.77827 -3.46226e-08 2.64657C-2.88655e-08 2.51486 0.0512195 2.39047 0.144512 2.299L0.439024 2.00266C0.631098 1.81059 0.943902 1.81059 1.13598 2.00266L4.5 5.36669L7.86585 1.999C7.95915 1.90571 8.08171 1.85449 8.21341 1.85449C8.34512 1.85449 8.46951 1.90571 8.56098 1.999L8.85549 2.29352C8.94878 2.38681 9 2.50937 9 2.64108C9 2.77279 8.94878 2.89718 8.85549 2.98864L4.84756 7.00022C4.75427 7.09352 4.62988 7.14474 4.49817 7.14291C4.36646 7.14291 4.24207 7.09352 4.14878 7.00022Z" fill="#68635F"/>
</g>
<defs>
<clipPath id="clip0">
<rect width="9" height="9" fill="white" transform="matrix(-4.37114e-08 1 1 4.37114e-08 0 0)"/>
</clipPath>
</defs>
</svg>
