<svg width="24" height="24" viewBox="0 0 24 24" fill="none" xmlns="http://www.w3.org/2000/svg">
<path fill-rule="evenodd" clip-rule="evenodd" d="M23.234 11.7332C23.234 18.2133 18.0329 23.4664 11.617 23.4664C5.20112 23.4664 0 18.2133 0 11.7332C0 5.25313 5.20112 0 11.617 0C18.0329 0 23.234 5.25313 23.234 11.7332ZM16.729 10.4612C16.7463 8.4334 15.0192 6.57442 12.879 6.31736C12.8366 6.31233 12.7903 6.30467 12.7414 6.29656L12.741 6.2965C12.635 6.27895 12.5255 6.2609 12.4149 6.2609C11.9763 6.2609 11.859 6.56902 11.8282 6.75278C11.7981 6.93145 11.8268 7.08149 11.9131 7.19892C12.0584 7.39644 12.314 7.43151 12.5193 7.4596L12.5239 7.46024C12.5824 7.46831 12.6374 7.47591 12.6837 7.48631C14.6066 7.91597 15.254 8.59148 15.5705 10.498C15.5782 10.5445 15.5817 10.6017 15.5854 10.6624V10.6624L15.5854 10.6625L15.5854 10.6629C15.5992 10.8907 15.6279 11.3649 16.1377 11.3649H16.1377C16.1802 11.3649 16.2258 11.3612 16.2733 11.354C16.7479 11.2819 16.7331 10.8484 16.7259 10.6402L16.7259 10.6397C16.7239 10.5812 16.722 10.526 16.7269 10.4892C16.7283 10.4799 16.729 10.4706 16.729 10.4612ZM12.4463 5.58787C12.4014 5.58099 12.3475 5.57706 12.2905 5.57295L12.2904 5.57294C12.0546 5.55574 11.5642 5.51998 11.5933 5.013C11.6059 4.79359 11.7043 4.42553 12.2221 4.42553C12.2799 4.42553 12.3369 4.42942 12.3874 4.43286H12.3874H12.3874L12.39 4.43304L12.3962 4.43345L12.3963 4.43346C12.4362 4.43616 12.4738 4.43871 12.5047 4.43871C12.5249 4.43871 12.5368 4.43755 12.5432 4.43661C12.5562 4.43478 12.569 4.43406 12.5825 4.43451C15.8342 4.54426 18.6514 7.49549 18.6112 10.7501C18.6107 10.7929 18.6128 10.8417 18.6151 10.8935L18.6152 10.8936L18.6153 10.8966C18.625 11.1125 18.6371 11.3812 18.4642 11.5621C18.3651 11.6658 18.2265 11.7183 18.0523 11.7183L18.0351 11.7181C17.4797 11.7074 17.4714 11.1904 17.4673 10.9417V10.9416C17.4662 10.8717 17.4651 10.8058 17.4583 10.7517C17.0559 7.56946 15.6038 6.07345 12.4463 5.58787ZM17.3059 14.8646C17.2388 14.8134 17.1694 14.7603 17.1044 14.7079C16.7597 14.4306 16.3931 14.175 16.0385 13.9277L16.0382 13.9275C15.9646 13.8762 15.8909 13.8249 15.8176 13.7734C15.3632 13.4543 14.9548 13.2992 14.5688 13.2992C14.049 13.2992 13.5958 13.5864 13.2218 14.1527C13.0561 14.4038 12.855 14.5259 12.6072 14.5259C12.4607 14.5259 12.2943 14.4841 12.1125 14.4016C10.6459 13.7365 9.5987 12.7168 8.99984 11.3709C8.71035 10.7203 8.8042 10.2951 9.31368 9.94901C9.60299 9.75265 10.1415 9.38709 10.1034 8.68706C10.0602 7.89211 8.30615 5.50021 7.56713 5.22854C7.25423 5.11347 6.92548 5.1124 6.58824 5.22586C5.73866 5.51146 5.12899 6.01303 4.82498 6.67626C4.5312 7.31711 4.54447 8.06958 4.86335 8.85233C5.7852 11.1155 7.08128 13.0886 8.71571 14.7169C10.3155 16.3108 12.2818 17.6164 14.56 18.5974C14.7653 18.6857 14.9807 18.7339 15.138 18.7691L15.1495 18.7717C15.1982 18.7826 15.2403 18.7921 15.2716 18.8007C15.2901 18.8057 15.3092 18.8084 15.3284 18.8086L15.3464 18.8087H15.3465C16.418 18.8087 17.7045 17.8296 18.0997 16.7133C18.4458 15.7359 17.8138 15.2528 17.3059 14.8646ZM12.7642 8.15794L12.7645 8.15793C13.2508 8.14618 13.7854 8.39985 14.2289 8.85028C14.6709 9.29932 14.9308 9.86307 14.925 10.3596C14.9407 10.8354 14.7673 11.0983 14.4095 11.1409C14.3871 11.1436 14.3646 11.1449 14.3427 11.1449H14.3426C14.0451 11.1449 13.8134 10.9046 13.7791 10.5606C13.7053 9.82264 13.3362 9.42519 12.6174 9.30986C12.4192 9.27792 12.2013 9.21972 12.0876 9.02979C12.0101 8.90035 12.0026 8.74258 12.0653 8.56087C12.1992 8.17224 12.5806 8.16258 12.7642 8.15794Z" fill="white"/>
</svg>
