<?xml version="1.0" encoding="UTF-8"?>
<!DOCTYPE svg PUBLIC "-//W3C//DTD SVG 1.1//EN" "http://www.w3.org/Graphics/SVG/1.1/DTD/svg11.dtd">
<!-- Creator: CorelDRAW 2020 (64-Bit) -->
<svg xmlns="http://www.w3.org/2000/svg" xml:space="preserve" width="40px" height="40px" version="1.1" style="shape-rendering:geometricPrecision; text-rendering:geometricPrecision; image-rendering:optimizeQuality; fill-rule:evenodd; clip-rule:evenodd"
viewBox="0 0 5.35 5.35"
 xmlns:xlink="http://www.w3.org/1999/xlink"
 xmlns:xodm="http://www.corel.com/coreldraw/odm/2003">
 <defs>
  <style type="text/css">
   <![CDATA[
    .str0 {stroke:#2B2624;stroke-width:0.07;stroke-miterlimit:22.9256}
    .fil0 {fill:none}
    .fil1 {fill:#2B2624;fill-rule:nonzero}
   ]]>
  </style>
   <clipPath id="id0">
    <path d="M1.61 3.82l2.21 0 0 -2.21 -2.21 0 0 2.21z"/>
   </clipPath>
 </defs>
 <g id="Camada_x0020_1">
  <metadata id="CorelCorpID_0Corel-Layer"/>
  <circle class="fil0 str0" cx="2.68" cy="2.68" r="2.64"/>
  <g>
  </g>
  <g style="clip-path:url(#id0)">
   <g>
    <path class="fil1" d="M2.17 2.24c0.01,0.01 0.02,0.01 0.03,0.01 0.02,0 0.03,0 0.04,-0.01 0.02,-0.02 0.02,-0.05 0,-0.07l-0.42 -0.41c-0.02,-0.02 -0.04,-0.02 -0.06,0 -0.02,0.02 -0.02,0.05 0,0.06l0.41 0.42z"/>
    <path class="fil1" d="M1.95 1.69l0.43 0.36c0.04,0.05 0.07,0.1 0.07,0.16 -0.01,0.08 0.03,0.17 0.12,0.28 0.01,0.01 0.02,0.02 0.04,0.02 0.01,0 0.02,-0.01 0.03,-0.01 0.02,-0.02 0.02,-0.05 0,-0.07 -0.09,-0.12 -0.1,-0.18 -0.1,-0.22 0,-0.08 -0.04,-0.16 -0.1,-0.22l-0.43 -0.37c-0.01,-0.01 -0.04,-0.01 -0.06,0.01 -0.02,0.02 -0.01,0.05 0,0.06z"/>
    <path class="fil1" d="M3.77 3.58l-0.63 -0.63c-0.02,-0.02 -0.04,-0.02 -0.06,0 -0.02,0.01 -0.02,0.04 0,0.06l0.63 0.63c0.02,0.02 0.02,0.05 0,0.07 -0.02,0.02 -0.05,0.02 -0.07,0l-0.69 -0.69c-0.02,-0.02 -0.05,-0.02 -0.06,0 -0.02,0.02 -0.02,0.04 0,0.06l0.69 0.69c0.03,0.03 0.06,0.05 0.1,0.05 0.03,0 0.07,-0.02 0.09,-0.05 0.06,-0.05 0.06,-0.14 0,-0.19z"/>
    <path class="fil1" d="M3.79 1.81c0,-0.08 -0.03,-0.14 -0.08,-0.19 -0.02,-0.02 -0.04,-0.02 -0.06,0 -0.01,0 -0.16,0.16 -1.96,1.95 -0.05,0.06 -0.05,0.14 0,0.2 0.03,0.02 0.07,0.04 0.1,0.04 0.04,0 0.07,-0.02 0.1,-0.04l0.58 -0.59c0.23,-0.22 0.33,-0.26 0.38,-0.26 0.1,-0.01 0.19,-0.04 0.25,-0.11 0.3,-0.29 0.69,-0.71 0.69,-1zm-0.95 1.02c-0.11,0.01 -0.24,0.09 -0.43,0.29l-0.59 0.58c-0.02,0.02 -0.04,0.02 -0.06,0 -0.02,-0.02 -0.02,-0.04 0,-0.06 1.18,-1.18 1.77,-1.78 1.91,-1.92 0.02,0.03 0.02,0.05 0.02,0.09 0,0.28 -0.49,0.77 -0.65,0.94 -0.05,0.04 -0.12,0.07 -0.2,0.08z"/>
    <path class="fil1" d="M2.23 2.54c0.05,0 0.12,0.04 0.2,0.1 0.01,0.01 0.02,0.01 0.03,0.01 0.01,0 0.03,0 0.04,-0.01 0.01,-0.02 0.01,-0.05 -0.01,-0.07 -0.1,-0.08 -0.18,-0.12 -0.26,-0.12 -0.05,-0.01 -0.13,-0.03 -0.19,-0.08l-0.35 -0.38c-0.02,-0.02 -0.05,-0.02 -0.07,0 -0.02,0.01 -0.02,0.04 0,0.06l0.36 0.38c0.06,0.06 0.14,0.1 0.25,0.11z"/>
   </g>
  </g>
  <polygon class="fil0" points="1.61,3.82 3.82,3.82 3.82,1.61 1.61,1.61 "/>
 </g>
</svg>
