<?xml version="1.0" encoding="UTF-8"?>
<!DOCTYPE svg PUBLIC "-//W3C//DTD SVG 1.1//EN" "http://www.w3.org/Graphics/SVG/1.1/DTD/svg11.dtd">
<!-- Creator: CorelDRAW 2020 (64-Bit) -->
<svg xmlns="http://www.w3.org/2000/svg" xml:space="preserve" width="21px" height="28px" version="1.1" style="shape-rendering:geometricPrecision; text-rendering:geometricPrecision; image-rendering:optimizeQuality; fill-rule:evenodd; clip-rule:evenodd"
viewBox="0 0 0.33 0.45"
 xmlns:xlink="http://www.w3.org/1999/xlink"
 xmlns:xodm="http://www.corel.com/coreldraw/odm/2003">
 <defs>
  <style type="text/css">
   <![CDATA[
    .fil0 {fill:#2B2624;fill-rule:nonzero}
   ]]>
  </style>
 </defs>
 <g id="Camada_x0020_1">
  <metadata id="CorelCorpID_0Corel-Layer"/>
  <path id="Group_x0020_183.svg" class="fil0" d="M0.33 0.41l-0.01 -0.31c0,-0.01 -0.01,-0.02 -0.01,-0.02l-0.06 0 0 0c0,-0.04 -0.04,-0.08 -0.08,-0.08 -0.05,0 -0.09,0.04 -0.09,0.08l0 0 -0.05 0c-0.01,0 -0.02,0.01 -0.02,0.02l-0.01 0.31c0,0.01 0,0.02 0.01,0.03 0.01,0 0.02,0.01 0.02,0.01l0.27 0c0.01,0 0.02,-0.01 0.02,-0.01 0.01,-0.01 0.01,-0.02 0.01,-0.03zm-0.23 -0.33c0,-0.04 0.03,-0.07 0.07,-0.07 0.04,0 0.07,0.03 0.07,0.07l0 0 -0.14 0 0 0zm0.21 0.35c0,0 0,0.01 -0.01,0.01l-0.27 0c0,0 -0.01,-0.01 -0.01,-0.01 0,-0.01 -0.01,-0.01 -0.01,-0.02l0.02 -0.31c0,0 0,0 0,0l0.05 0 0 0.04c0,0 0.01,0.01 0.01,0.01 0,0 0.01,-0.01 0.01,-0.01l0 -0.04 0.14 0 0 0.04c0,0 0,0.01 0,0.01 0.01,0 0.01,-0.01 0.01,-0.01l0 -0.04 0.06 0c0,0 0,0 0,0l0.01 0.31c0,0.01 0,0.01 -0.01,0.02z"/>
 </g>
</svg>
