<?xml version="1.0" encoding="UTF-8"?>
<!DOCTYPE svg PUBLIC "-//W3C//DTD SVG 1.1//EN" "http://www.w3.org/Graphics/SVG/1.1/DTD/svg11.dtd">
<!-- Creator: CorelDRAW 2020 (64-Bit) -->
<svg xmlns="http://www.w3.org/2000/svg" xml:space="preserve" width="22px" height="22px" version="1.1" style="shape-rendering:geometricPrecision; text-rendering:geometricPrecision; image-rendering:optimizeQuality; fill-rule:evenodd; clip-rule:evenodd"
viewBox="0 0 0.38 0.38"
 xmlns:xlink="http://www.w3.org/1999/xlink"
 xmlns:xodm="http://www.corel.com/coreldraw/odm/2003">
 <defs>
  <style type="text/css">
   <![CDATA[
    .fil0 {fill:#2B2624;fill-rule:nonzero}
   ]]>
  </style>
 </defs>
 <g id="Camada_x0020_1">
  <metadata id="CorelCorpID_0Corel-Layer"/>
  <g id="_930579408">
   <path class="fil0" d="M0.1 0.11c0,0 0,0 0,0 0,0 0.01,0 0.01,0 0,-0.01 0,-0.01 0,-0.01l-0.07 -0.07c-0.01,-0.01 -0.01,-0.01 -0.01,0 -0.01,0 -0.01,0 0,0.01l0.07 0.07z"/>
   <path class="fil0" d="M0.06 0.01l0.07 0.07c0.01,0 0.01,0.01 0.01,0.02 0,0.02 0.01,0.03 0.02,0.05 0.01,0 0.01,0 0.01,0 0,0 0,0 0.01,0 0,0 0,-0.01 0,-0.01 -0.02,-0.02 -0.02,-0.03 -0.02,-0.04 0,-0.01 -0.01,-0.02 -0.02,-0.04l-0.07 -0.06c0,0 -0.01,0 -0.01,0 0,0.01 0,0.01 0,0.01z"/>
   <path class="fil0" d="M0.37 0.34l-0.11 -0.11c0,-0.01 -0.01,-0.01 -0.01,0 0,0 0,0.01 0,0.01l0.11 0.11c0,0 0,0 0,0.01 -0.01,0 -0.01,0 -0.01,0l-0.12 -0.12c0,0 -0.01,0 -0.01,0 -0.01,0 -0.01,0.01 0,0.01l0.12 0.12c0,0 0.01,0.01 0.01,0.01 0.01,0 0.01,-0.01 0.02,-0.01 0.01,-0.01 0.01,-0.03 0,-0.03z"/>
   <path class="fil0" d="M0.37 0.03c0,-0.01 0,-0.02 -0.01,-0.03 -0.01,0 -0.01,0 -0.01,0 0,0 -0.03,0.03 -0.34,0.33 0,0.01 0,0.03 0,0.04 0.01,0 0.02,0 0.02,0 0.01,0 0.01,0 0.02,0l0.1 -0.1c0.04,-0.04 0.05,-0.05 0.06,-0.05 0.02,0 0.03,0 0.04,-0.02 0.05,-0.04 0.12,-0.12 0.12,-0.17zm-0.16 0.18c-0.02,0 -0.04,0.01 -0.07,0.05l-0.1 0.1c-0.01,0 -0.01,0 -0.01,0 -0.01,-0.01 -0.01,-0.01 0,-0.01 0.2,-0.21 0.3,-0.31 0.32,-0.33 0,0 0,0.01 0,0.01 0,0.05 -0.08,0.14 -0.11,0.16 0,0.01 -0.02,0.02 -0.03,0.02z"/>
   <path class="fil0" d="M0.11 0.16c0,0 0.02,0 0.03,0.02 0,0 0,0 0.01,0 0,0 0,0 0,0 0,-0.01 0,-0.01 0,-0.02 -0.02,-0.01 -0.03,-0.02 -0.04,-0.02 -0.01,0 -0.03,0 -0.04,-0.01l-0.06 -0.06c0,-0.01 0,-0.01 -0.01,-0.01 0,0.01 0,0.01 0,0.02l0.06 0.06c0.01,0.01 0.03,0.02 0.05,0.02z"/>
  </g>
 </g>
</svg>
