<?xml version="1.0" encoding="UTF-8"?>
<!DOCTYPE svg PUBLIC "-//W3C//DTD SVG 1.1//EN" "http://www.w3.org/Graphics/SVG/1.1/DTD/svg11.dtd">
<!-- Creator: CorelDRAW 2020 (64-Bit) -->
<svg xmlns="http://www.w3.org/2000/svg" xml:space="preserve" width="22px" height="18px" version="1.1" style="shape-rendering:geometricPrecision; text-rendering:geometricPrecision; image-rendering:optimizeQuality; fill-rule:evenodd; clip-rule:evenodd"
viewBox="0 0 0.38 0.31"
 xmlns:xlink="http://www.w3.org/1999/xlink"
 xmlns:xodm="http://www.corel.com/coreldraw/odm/2003">
 <defs>
  <style type="text/css">
   <![CDATA[
    .fil0 {fill:#2B2624;fill-rule:nonzero}
   ]]>
  </style>
 </defs>
 <g id="Camada_x0020_1">
  <metadata id="CorelCorpID_0Corel-Layer"/>
  <path class="fil0" d="M0 0.01c0,0.01 0.01,0.04 0.02,0.04l0.09 0 0.07 0.12 -0.07 0.12 -0.03 0 0 0.02 0.04 0 0.07 -0.12 0.07 0.12 0.03 0 0 -0.02 -0.02 0 -0.07 -0.12 0.07 -0.12 0.08 0c0.02,0 0.03,-0.03 0.03,-0.04l0 -0.01 -0.38 0 0 0.01zm0.19 0.15l-0.06 -0.11 0.12 0 -0.06 0.11zm0.17 -0.14c0,0 0,0.01 -0.01,0.01l-0.33 0c0,0 0,-0.01 0,-0.01l0.34 0z"/>
 </g>
</svg>
