<svg width="22" height="23" viewBox="0 0 32 33" fill="none" xmlns="http://www.w3.org/2000/svg">
<path d="M31.5 16.16C31.5 24.8135 24.5557 31.82 16 31.82C7.44427 31.82 0.5 24.8135 0.5 16.16C0.5 7.50652 7.44427 0.5 16 0.5C24.5557 0.5 31.5 7.50652 31.5 16.16Z" stroke="#68635F"/>
<path d="M21.9219 10.7515H10.0781C9.48439 10.7515 9 11.2359 9 11.8295V20.1705C9 20.7641 9.48439 21.2485 10.0781 21.2485H21.9219C22.5156 21.2485 23 20.7641 23 20.1705V11.8295C23 11.2359 22.5156 10.7515 21.9219 10.7515ZM21.7654 11.5489L16.0738 16.4164L10.3823 11.5489H21.7654ZM22.2025 20.1705C22.2025 20.324 22.0755 20.451 21.9219 20.451H10.0781C9.92447 20.451 9.79747 20.324 9.79747 20.1705V12.0983L15.8139 17.2434C15.8169 17.2464 15.8228 17.2494 15.8257 17.2523C15.8287 17.2553 15.8346 17.2582 15.8376 17.2612C15.8464 17.2671 15.8523 17.273 15.8612 17.2759C15.8641 17.2789 15.8671 17.2789 15.87 17.2818C15.8819 17.2878 15.8937 17.2937 15.9055 17.2996C15.9084 17.2996 15.9114 17.3025 15.9143 17.3025C15.9232 17.3055 15.9321 17.3114 15.9439 17.3143C15.9468 17.3143 15.9527 17.3173 15.9557 17.3173C15.9646 17.3202 15.9734 17.3232 15.9823 17.3232C15.9852 17.3232 15.9911 17.3261 15.9941 17.3261C16.003 17.3291 16.0148 17.3291 16.0236 17.3321C16.0266 17.3321 16.0295 17.3321 16.0325 17.3321C16.0443 17.3321 16.0591 17.335 16.0709 17.335C16.0827 17.335 16.0975 17.335 16.1093 17.3321C16.1122 17.3321 16.1152 17.3321 16.1181 17.3321C16.127 17.3321 16.1388 17.3291 16.1477 17.3261C16.1506 17.3261 16.1565 17.3232 16.1595 17.3232C16.1684 17.3202 16.1772 17.3173 16.1861 17.3173C16.189 17.3173 16.1949 17.3143 16.1979 17.3143C16.2068 17.3114 16.2156 17.3084 16.2274 17.3025C16.2304 17.3025 16.2333 17.2996 16.2363 17.2996C16.2481 17.2937 16.2599 17.2878 16.2717 17.2818C16.2747 17.2789 16.2776 17.2789 16.2806 17.2759C16.2895 17.27 16.2954 17.2671 16.3042 17.2612C16.3072 17.2582 16.3131 17.2553 16.316 17.2523C16.319 17.2494 16.3249 17.2464 16.3278 17.2434L22.2025 12.2253V20.1705Z" fill="#68635F"/>
</svg>
