<svg width="30" height="28" viewBox="0 0 30 28" fill="none" xmlns="http://www.w3.org/2000/svg">
<path d="M21.6563 1.52841C21.334 1.39537 20.9653 1.54871 20.8323 1.87084C20.6993 2.19298 20.8526 2.56191 21.1748 2.69484C25.7694 4.59167 28.7382 9.02928 28.7382 14.0002C28.7382 20.7413 23.254 26.2256 16.5127 26.2256C16.1642 26.2256 15.8817 26.5082 15.8817 26.8566C15.8817 27.205 16.1642 27.4876 16.5127 27.4876C23.9498 27.4876 30.0002 21.4372 30.0002 14.0002C30.0002 8.51648 26.7251 3.62096 21.6563 1.52841Z" fill="#2B2624"/>
<path d="M16.5127 22.7611C21.3436 22.7611 25.2737 18.8309 25.2737 14.0002C25.2737 9.16942 21.3436 5.23926 16.5127 5.23926C16.1643 5.23926 15.8817 5.52185 15.8817 5.87027C15.8817 6.2188 16.1643 6.50129 16.5127 6.50129C20.6477 6.50129 24.0117 9.86522 24.0117 14.0002C24.0117 18.1351 20.6477 21.499 16.5127 21.499C16.1643 21.499 15.8817 21.7815 15.8817 22.13C15.8817 22.4786 16.1643 22.7611 16.5127 22.7611Z" fill="#2B2624"/>
<path d="M18.5666 16.2058C18.3117 16.4433 18.2975 16.8426 18.535 17.0976C18.6594 17.231 18.8278 17.2985 18.9969 17.2985C19.1509 17.2985 19.3053 17.2425 19.4269 17.1292C20.2925 16.3229 20.789 15.1822 20.789 13.9997C20.789 11.6419 18.8707 9.72363 16.5129 9.72363C16.1644 9.72363 15.8818 10.0062 15.8818 10.3546C15.8818 10.7031 16.1644 10.9857 16.5129 10.9857C18.1748 10.9857 19.527 12.3377 19.527 13.9997C19.5269 14.8455 19.1858 15.6289 18.5666 16.2058Z" fill="#2B2624"/>
<path d="M13.7551 0.560771C13.5194 0.463174 13.248 0.516915 13.0675 0.69707L6.39891 7.35553H0.631014C0.282589 7.35553 0 7.63812 0 7.98655V20.0135C0 20.3619 0.282589 20.6445 0.631014 20.6445H6.65994C7.00836 20.6445 7.29095 20.3619 7.29095 20.0135C7.29095 19.665 7.00836 19.3825 6.65994 19.3825H1.26203V8.61756H6.65994C6.82715 8.61756 6.98743 8.5512 7.10575 8.4331L12.8823 2.66541V25.3347L9.76642 22.2235C9.51969 21.9773 9.12016 21.9775 8.87406 22.2242C8.62786 22.4708 8.62817 22.8704 8.8748 23.1166L13.0676 27.3029C13.1882 27.4235 13.3495 27.4874 13.5136 27.4874C13.5949 27.4874 13.677 27.4717 13.7552 27.4392C13.9909 27.3415 14.1445 27.1114 14.1445 26.8564V1.14362C14.1443 0.888478 13.9906 0.658473 13.7551 0.560771Z" fill="#2B2624"/>
</svg>
