<svg width="33" height="33" viewBox="0 0 33 33" fill="none" xmlns="http://www.w3.org/2000/svg">
<path d="M8.45239 9.42529C8.58717 9.55864 8.76313 9.62606 8.93915 9.62606C9.11517 9.62606 9.29113 9.55871 9.42455 9.42529C9.69268 9.15716 9.69268 8.72126 9.42455 8.45313L3.23698 2.26555C2.96885 1.99742 2.53295 1.99742 2.26482 2.26555C1.99669 2.53368 1.99669 2.96958 2.26482 3.23771L8.45239 9.42529Z" fill="#2B2624"/>
<path d="M5.20866 1.31483L11.5324 6.6705C12.1786 7.31678 12.5444 8.1775 12.5347 9.0328C12.521 10.2387 13.104 11.5202 14.4227 13.1895C14.5588 13.3614 14.7596 13.4507 14.963 13.4507C15.1116 13.4507 15.2628 13.4026 15.3879 13.3009C15.6863 13.0657 15.7358 12.634 15.5007 12.3356C14.061 10.5137 13.9029 9.58697 13.9097 9.04795C13.9235 7.82558 13.412 6.60456 12.4632 5.65993L6.09832 0.265651C5.80821 0.0195016 5.37231 0.0566271 5.12893 0.34538C4.88278 0.635552 4.91991 1.07004 5.20866 1.31483Z" fill="#2B2624"/>
<path d="M32.3968 29.4817L22.9463 20.0312C22.6782 19.763 22.2423 19.763 21.9742 20.0312C21.706 20.2993 21.706 20.7352 21.9742 21.0033L31.4247 30.4538C31.6928 30.7219 31.6928 31.1578 31.4247 31.426C31.1565 31.6941 30.7206 31.6941 30.4525 31.426L20.1042 21.0775C19.836 20.8094 19.4001 20.8094 19.132 21.0775C18.8639 21.3456 18.8639 21.7815 19.132 22.0497L29.4804 32.3981C29.8833 32.7996 30.4113 33.0003 30.9393 33.0003C31.4673 33.0003 31.9953 32.7996 32.3968 32.3981C33.2012 31.5937 33.2012 30.286 32.3968 29.4817Z" fill="#2B2624"/>
<path d="M32.5611 3.00655C32.5583 1.88731 32.1788 0.944023 31.4309 0.201514C31.1834 -0.0459887 30.7915 -0.066614 30.5179 0.152014C30.3872 0.256493 28.0978 2.52669 1.29603 29.367C0.490289 30.1741 0.488871 31.4859 1.2919 32.2888C1.6948 32.6917 2.22416 32.8925 2.75217 32.8925C3.27882 32.8925 3.80541 32.6917 4.20696 32.2916L12.9589 23.5383C16.3304 20.1681 17.7907 19.6992 18.5951 19.6414C20.1062 19.5314 21.4097 18.9691 22.3667 18.0134C26.7475 13.6327 32.5694 7.31168 32.5611 3.00655ZM18.4947 18.2678C16.8227 18.3888 14.8757 19.6744 11.9854 22.5633L3.23338 31.3181C2.96661 31.5862 2.53077 31.5835 2.26264 31.3153C1.99451 31.0486 1.99728 30.61 2.26812 30.3391C19.8862 12.6949 28.7537 3.82466 30.8753 1.71811C31.0829 2.08937 31.1847 2.5156 31.1847 3.00648C31.1916 7.23878 23.8174 14.6144 21.3932 17.0385C20.6741 17.7577 19.6717 18.1826 18.4947 18.2678Z" fill="#2B2624"/>
<path d="M9.26095 13.916C10.0571 13.9751 11.0636 14.4935 12.3396 15.5014C12.4661 15.6017 12.6173 15.6499 12.7658 15.6499C12.9693 15.6499 13.1701 15.5605 13.3049 15.3886C13.54 15.0903 13.4905 14.6585 13.1921 14.4234C11.6728 13.2216 10.4544 12.6248 9.36131 12.5451C8.53494 12.4846 7.36479 12.2275 6.49717 11.3599L1.18823 5.71681C0.928355 5.44043 0.492454 5.42805 0.216075 5.68793C-0.0603029 5.94781 -0.0726781 6.38371 0.1872 6.66009L5.51128 12.3169C6.44632 13.2519 7.74294 13.8046 9.26095 13.916Z" fill="#2B2624"/>
</svg>
