<svg width="36" height="29" viewBox="0 0 36 29" fill="none" xmlns="http://www.w3.org/2000/svg">
<path d="M0.8125 1C0.8125 2.58606 1.35287 4.4375 2.875 4.4375H10.7208L17.2128 16.1663L10.7201 27.125H8.375V28.5H11.5299L18 17.5818L24.4701 28.5H27.625V27.125H25.2799L18.7872 16.1663L25.2793 4.4375H33.125C34.6471 4.4375 35.1875 2.58606 35.1875 1V0.3125H0.8125V1ZM18 14.75L12.2931 4.4375H23.7069L18 14.75ZM33.7609 1.6875C33.6626 2.37706 33.4323 3.0625 33.125 3.0625H2.875C2.56425 3.0625 2.336 2.38256 2.23906 1.6875H33.7609Z" fill="#2B2624"/>
</svg>
