<svg width="50" height="21" viewBox="0 0 50 21" fill="none" xmlns="http://www.w3.org/2000/svg">
<path fill-rule="evenodd" clip-rule="evenodd" d="M32.1204 11.0101C32.1571 11.248 32.1754 11.4264 32.2121 11.6049C32.5789 13.2702 33.7892 14.3805 35.3664 14.5192C36.7601 14.6382 37.8604 14.0632 38.6673 12.8341C39.0708 12.2393 39.7126 12.1402 40.2261 12.616C40.5195 12.8935 40.5562 13.2504 40.3178 13.5874C40.1894 13.7658 40.061 13.9443 39.9327 14.1426C39.4009 14.9356 38.704 15.4709 37.8421 15.7881C36.4483 16.3035 35.0546 16.3829 33.6792 15.8277C31.827 15.0942 30.7267 13.6271 30.4149 11.5256C30.2316 10.2369 30.3416 8.94825 30.8917 7.77854C31.6803 6.11318 32.9273 5.08228 34.6511 4.7849C35.7882 4.58664 36.9251 4.70562 37.9888 5.2607C39.4926 6.0339 40.4095 7.34238 40.7579 9.08704C40.8496 9.56285 40.8863 10.0585 40.923 10.5343C40.9596 10.8317 40.8313 10.9705 40.5379 10.9903C40.4095 10.9903 40.2811 10.9903 40.1528 10.9903C37.5854 10.9903 35.0179 10.9903 32.4505 10.9903C32.3771 11.0101 32.2854 11.0101 32.1204 11.0101V11.0101ZM39.1441 9.18616C38.924 7.61992 37.1819 6.27179 35.5864 6.37092C33.9175 6.47005 32.2487 7.85783 32.1937 9.18616C34.4861 9.18616 36.8151 9.18616 39.1441 9.18616Z" fill="#2B2624"/>
<path fill-rule="evenodd" clip-rule="evenodd" d="M20.622 10.9701C20.6404 11.1287 20.6587 11.2476 20.677 11.3666C20.9888 13.2104 22.3825 14.4792 24.1064 14.5188C25.4084 14.5387 26.4354 13.9637 27.1873 12.8139C27.5907 12.1993 28.3059 12.1398 28.8011 12.6751C29.0395 12.9526 29.0761 13.2698 28.8561 13.587C28.7644 13.7457 28.6543 13.8844 28.5443 14.0232C27.9758 14.9154 27.2056 15.4903 26.252 15.8273C24.8582 16.323 23.4645 16.3626 22.1258 15.7877C20.2002 14.9749 19.1182 13.3888 18.8982 11.1683C18.7881 10.0977 18.8798 9.047 19.3016 8.07555C20.0902 6.21192 21.3922 5.06205 23.2995 4.78451C24.3081 4.64574 25.3167 4.72502 26.252 5.14138C27.9391 5.89474 28.9294 7.30234 29.2962 9.22546C29.3695 9.66162 29.4062 10.1176 29.4246 10.5538C29.4429 10.9107 29.3695 10.99 29.0211 10.99C28.4159 10.99 27.7924 10.99 27.1872 10.99C25.1333 10.99 23.0794 10.99 21.0438 10.99C20.9154 10.9701 20.787 10.9701 20.622 10.9701L20.622 10.9701ZM27.664 9.14608C27.444 7.59968 25.7569 6.29119 24.1063 6.33085C22.4925 6.37049 20.8237 7.75831 20.6953 9.14608C23.006 9.14608 25.3167 9.14608 27.664 9.14608Z" fill="#2B2624"/>
<path fill-rule="evenodd" clip-rule="evenodd" d="M46.1865 11.8413C46.3149 11.9603 46.3883 12.0396 46.4616 12.1189C47.3602 12.9515 48.2588 13.7644 49.139 14.5971C49.1941 14.6566 49.2674 14.716 49.3224 14.7755C49.6525 15.1324 49.6892 15.6478 49.3775 16.0047C49.0841 16.3616 48.6072 16.421 48.2588 16.1038C47.6353 15.5487 47.0301 14.9737 46.4249 14.4187C45.5447 13.6058 44.6828 12.8128 43.8025 11.9999C43.7292 11.9206 43.6375 11.8612 43.5091 11.7422C43.5091 11.9404 43.4907 12.0594 43.4907 12.1982C43.4907 14.4781 43.4907 16.7581 43.4907 19.038C43.4907 19.1371 43.4907 19.2561 43.4907 19.3552C43.4541 19.8509 43.1056 20.2077 42.6472 20.1879C42.2071 20.168 41.8953 19.8112 41.877 19.3156C41.877 19.2164 41.877 19.0975 41.877 18.9984C41.877 14.498 41.877 9.99758 41.877 5.49714C41.877 5.35837 41.877 5.21959 41.877 5.08082C41.877 4.76364 41.9136 4.70415 42.1887 4.70415C42.5738 4.6843 42.9589 4.6843 43.3257 4.6843C44.2427 4.6843 45.1779 4.72394 46.0948 4.66445C47.6353 4.58517 49.3591 5.9333 49.5242 7.896C49.6709 9.66049 48.5706 11.3258 46.9017 11.6827C46.7 11.7223 46.4799 11.7818 46.1866 11.8413H46.1865ZM43.3807 10.4535C43.4724 10.4734 43.5458 10.4734 43.6008 10.4734C44.371 10.4734 45.1412 10.4734 45.9114 10.4734C46.1315 10.4734 46.3516 10.4535 46.5716 10.3743C47.2868 10.1364 47.8553 9.68035 48.0387 8.84767C48.3505 7.44005 47.3785 6.13156 46.0398 6.13156C45.2513 6.13156 44.4627 6.13156 43.6558 6.13156C43.5641 6.13156 43.4724 6.1514 43.3807 6.1514C43.3807 7.59862 43.3807 9.00624 43.3807 10.4535Z" fill="#2B2624"/>
<path fill-rule="evenodd" clip-rule="evenodd" d="M16.239 11.0286C14.7169 11.0286 13.2315 11.0286 11.7277 11.0286C11.7277 11.1674 11.7094 11.3061 11.7094 11.4251C11.7094 12.6741 11.7094 13.9231 11.7094 15.1722C11.7094 15.3308 11.7094 15.4894 11.6727 15.6282C11.5626 16.0048 11.1959 16.2428 10.8474 16.223C10.4623 16.1833 10.1506 15.8661 10.0956 15.4498C10.0772 15.3506 10.0956 15.2515 10.0956 15.1524C10.0956 10.6916 10.0956 6.23085 10.0956 1.78994C10.0956 1.61153 10.1139 1.43307 10.1689 1.27449C10.2973 0.897818 10.6641 0.679716 11.0491 0.739206C11.3976 0.798695 11.691 1.11589 11.7277 1.5124C11.746 1.63137 11.7277 1.7503 11.7277 1.86927C11.7277 4.16906 11.7277 6.449 11.7277 8.74874C11.7277 8.88752 11.746 9.02629 11.746 9.14527C12.0211 9.22455 15.9456 9.22455 16.239 9.14527C16.239 9.04614 16.2574 8.92717 16.2574 8.80823C16.2574 7.79714 16.2574 6.78604 16.2574 5.77494C16.2574 5.67581 16.2574 5.57667 16.2574 5.47754C16.294 5.02154 16.6058 4.6845 17.0276 4.6647C17.4494 4.64486 17.8161 4.98189 17.8712 5.4379C17.8895 5.53703 17.8712 5.63616 17.8712 5.7353C17.8712 8.86771 17.8712 12.0002 17.8712 15.1326C17.8712 15.2317 17.8712 15.3309 17.8712 15.43C17.8161 15.886 17.4494 16.2428 17.0459 16.223C16.6241 16.2032 16.294 15.8464 16.2574 15.3904C16.2574 15.2912 16.2574 15.1921 16.2574 15.093C16.2574 13.8836 16.2574 12.6544 16.2574 11.4451C16.239 11.326 16.239 11.1872 16.239 11.0286H16.239Z" fill="#2B2624"/>
<path fill-rule="evenodd" clip-rule="evenodd" d="M4.59389 16.2618C3.51191 16.242 2.5033 15.9843 1.56799 15.3895C1.16454 15.1318 0.797764 14.8146 0.504363 14.4379C0.357639 14.2396 0.210971 14.0216 0.100915 13.7836C-0.0824786 13.407 -0.00914108 13.1096 0.265949 12.8122C0.577701 12.495 1.01782 12.3562 1.43963 12.6734C1.64137 12.832 1.82472 13.0303 1.9898 13.2285C2.15483 13.407 2.2832 13.6052 2.44827 13.7837C2.94342 14.319 3.54857 14.6164 4.24546 14.6956C4.88733 14.7749 5.52915 14.7551 6.15266 14.5172C6.40939 14.4181 6.66615 14.2793 6.88622 14.1009C7.41804 13.6648 7.43639 12.9312 6.92289 12.4752C6.68447 12.2571 6.39107 12.0986 6.09763 11.9598C5.36407 11.6227 4.61219 11.3849 3.84196 11.1667C3.21845 11.0081 2.61325 10.7901 1.98974 10.5918C1.75132 10.5125 1.53127 10.3737 1.31121 10.2548C0.72437 9.91774 0.394252 9.38245 0.302563 8.68854C0.11917 7.28092 0.614315 6.15086 1.78799 5.53628C3.58518 4.58467 5.40069 4.50534 7.17957 5.61556C7.50968 5.81383 7.82143 6.1112 8.11483 6.38875C8.33489 6.58702 8.48162 6.8844 8.57331 7.18179C8.72003 7.69724 8.48161 7.95499 8.0598 8.05412C7.69303 8.1334 7.36296 8.01448 7.10618 7.71708C7.05116 7.65759 7.01449 7.5981 6.97782 7.53867C6.55602 6.86461 5.95086 6.48793 5.2173 6.32931C4.48374 6.19053 3.75021 6.21033 3.05332 6.50772C2.79659 6.60685 2.53983 6.76548 2.33812 6.96373C1.84297 7.41973 1.84297 8.03431 2.31977 8.51012C2.63152 8.82731 2.9983 9.00577 3.40175 9.1049C4.28199 9.3428 5.18058 9.5807 6.06087 9.81861C6.62936 9.97723 7.17952 10.1755 7.69302 10.4927C8.3532 10.8693 8.83004 11.4245 8.99507 12.2373C9.19681 13.2286 8.99507 14.1009 8.27987 14.8147C7.47297 15.6077 6.53771 16.0637 5.45572 16.2024C5.16241 16.2222 4.86896 16.242 4.59388 16.2618L4.59389 16.2618Z" fill="#2B2624"/>
</svg>
