<?xml version="1.0" encoding="UTF-8"?>
<!DOCTYPE svg PUBLIC "-//W3C//DTD SVG 1.1//EN" "http://www.w3.org/Graphics/SVG/1.1/DTD/svg11.dtd">
<!-- Creator: CorelDRAW 2020 (64-Bit) -->
<svg xmlns="http://www.w3.org/2000/svg" xml:space="preserve" width="40px" height="40px" version="1.1" style="shape-rendering:geometricPrecision; text-rendering:geometricPrecision; image-rendering:optimizeQuality; fill-rule:evenodd; clip-rule:evenodd"
viewBox="0 0 25.94 25.94"
 xmlns:xlink="http://www.w3.org/1999/xlink"
 xmlns:xodm="http://www.corel.com/coreldraw/odm/2003">
 <defs>
  <style type="text/css">
   <![CDATA[
    .str0 {stroke:#2B2624;stroke-width:0.32;stroke-miterlimit:22.9256}
    .fil0 {fill:none}
    .fil1 {fill:#2B2624;fill-rule:nonzero}
   ]]>
  </style>
    <clipPath id="id0">
     <path d="M5.84 23.67l14.26 0 0 -17.83 -14.26 0 0 17.83z"/>
    </clipPath>
 </defs>
 <g id="Camada_x0020_1">
  <metadata id="CorelCorpID_0Corel-Layer"/>
  <g id="advantages-item-3.svg">
   <circle class="fil0 str0" cx="12.97" cy="12.97" r="12.81"/>
   <g>
   </g>
   <g style="clip-path:url(#id0)">
    <g id="_978473680">
     <path class="fil1" d="M7.4 9.4c0,0.52 0.17,1.12 0.67,1.12l2.54 0 2.1 3.8 -2.1 3.55 -0.76 0 0 0.45 1.02 0 2.1 -3.54 2.1 3.54 1.02 0 0 -0.45 -0.76 0 -2.11 -3.55 2.11 -3.8 2.54 0c0.5,0 0.67,-0.6 0.67,-1.12l0 -0.22 -11.14 0 0 0.22zm5.57 4.46l-1.85 -3.34 3.7 0 -1.85 3.34zm5.11 -4.23c-0.03,0.22 -0.11,0.44 -0.21,0.44l-9.8 0c-0.11,0 -0.18,-0.22 -0.21,-0.44l10.22 0z"/>
    </g>
   </g>
   <polygon class="fil0" points="5.84,23.67 20.1,23.67 20.1,5.84 5.84,5.84 "/>
  </g>
 </g>
</svg>
