<?xml version="1.0" encoding="UTF-8"?>
<!DOCTYPE svg PUBLIC "-//W3C//DTD SVG 1.1//EN" "http://www.w3.org/Graphics/SVG/1.1/DTD/svg11.dtd">
<!-- Creator: CorelDRAW 2020 (64-Bit) -->
<svg xmlns="http://www.w3.org/2000/svg" xml:space="preserve" width="16px" height="28px" version="1.1" style="shape-rendering:geometricPrecision; text-rendering:geometricPrecision; image-rendering:optimizeQuality; fill-rule:evenodd; clip-rule:evenodd"
viewBox="0 0 0.2 0.34"
 xmlns:xlink="http://www.w3.org/1999/xlink"
 xmlns:xodm="http://www.corel.com/coreldraw/odm/2003">
 <defs>
  <style type="text/css">
   <![CDATA[
    .fil0 {fill:#2B2624;fill-rule:nonzero}
   ]]>
  </style>
 </defs>
 <g id="Camada_x0020_1">
  <metadata id="CorelCorpID_0Corel-Layer"/>
  <g id="Group_x0020_183.svg">
   <path class="fil0" d="M0.1 0.21c0.03,0 0.06,-0.02 0.06,-0.06l0 -0.09c0,-0.03 -0.03,-0.06 -0.06,-0.06 -0.03,0 -0.06,0.03 -0.06,0.06l0 0.09c0,0.04 0.03,0.06 0.06,0.06zm-0.05 -0.15c0,-0.03 0.02,-0.05 0.05,-0.05 0.03,0 0.05,0.02 0.05,0.05l0 0.09c0,0.03 -0.02,0.05 -0.05,0.05 -0.03,0 -0.05,-0.02 -0.05,-0.05l0 -0.09z"/>
   <path class="fil0" d="M0.2 0.13c-0.01,0 -0.01,0.01 -0.01,0.01l0 0.02c0,0.05 -0.04,0.09 -0.09,0.09 -0.05,0 -0.09,-0.04 -0.09,-0.09l0 -0.02c0,0 0,-0.01 0,-0.01 -0.01,0 -0.01,0.01 -0.01,0.01l0 0.02c0,0.05 0.04,0.1 0.1,0.1l0 0.07 -0.06 0c0,0 0,0 0,0.01 0,0 0,0 0,0l0.12 0c0,0 0.01,0 0.01,0 0,-0.01 -0.01,-0.01 -0.01,-0.01l-0.05 0 0 -0.07c0.05,0 0.09,-0.05 0.09,-0.1l0 -0.02c0,0 0,-0.01 0,-0.01z"/>
  </g>
 </g>
</svg>
