<?xml version="1.0" encoding="UTF-8"?>
<!DOCTYPE svg PUBLIC "-//W3C//DTD SVG 1.1//EN" "http://www.w3.org/Graphics/SVG/1.1/DTD/svg11.dtd">
<!-- Creator: CorelDRAW 2020 (64-Bit) -->
<svg xmlns="http://www.w3.org/2000/svg" xml:space="preserve" width="40px" height="40px" version="1.1" style="shape-rendering:geometricPrecision; text-rendering:geometricPrecision; image-rendering:optimizeQuality; fill-rule:evenodd; clip-rule:evenodd"
viewBox="0 0 9.38 9.38"
 xmlns:xlink="http://www.w3.org/1999/xlink"
 xmlns:xodm="http://www.corel.com/coreldraw/odm/2003">
 <defs>
  <style type="text/css">
   <![CDATA[
    .str0 {stroke:#2B2624;stroke-width:0.12;stroke-miterlimit:22.9256}
    .fil0 {fill:none}
    .fil1 {fill:#2B2624;fill-rule:nonzero}
   ]]>
  </style>
 </defs>
 <g id="Camada_x0020_1">
  <metadata id="CorelCorpID_0Corel-Layer"/>
  <g id="advantages-item-4.svg">
   <circle class="fil0 str0" cx="4.69" cy="4.69" r="4.63"/>
   <path class="fil1" d="M6.35 6.56l-0.13 -3.13c0,-0.08 -0.06,-0.13 -0.13,-0.13l-0.57 0 0 -0.01c0,-0.46 -0.37,-0.83 -0.83,-0.83 -0.46,0 -0.83,0.37 -0.83,0.83l0 0.01 -0.57 0c-0.07,0 -0.13,0.05 -0.13,0.13l-0.13 3.13c0,0.09 0.03,0.18 0.1,0.25 0.06,0.07 0.15,0.1 0.24,0.1l2.63 0c0.1,0 0.18,-0.03 0.25,-0.1 0.07,-0.07 0.1,-0.16 0.1,-0.25zm-2.36 -3.27c0,-0.38 0.31,-0.7 0.7,-0.7 0.38,0 0.7,0.32 0.7,0.7l0 0.01 -1.4 0 0 -0.01zm2.17 3.43c-0.05,0.04 -0.1,0.06 -0.16,0.06l-2.63 0c-0.05,0 -0.11,-0.02 -0.15,-0.06 -0.04,-0.04 -0.06,-0.1 -0.06,-0.16l0.13 -3.13c0,0 0,0 0,0l0.57 0 0 0.42c0,0.04 0.02,0.07 0.06,0.07 0.04,0 0.07,-0.03 0.07,-0.07l0 -0.42 1.4 0 0 0.42c0,0.04 0.03,0.07 0.06,0.07 0.04,0 0.07,-0.03 0.07,-0.07l0 -0.42 0.57 0c0,0 0,0 0,0l0.12 3.13c0.01,0.06 -0.01,0.12 -0.05,0.16z"/>
  </g>
 </g>
</svg>
