<?xml version="1.0" encoding="UTF-8"?>
<!DOCTYPE svg PUBLIC "-//W3C//DTD SVG 1.1//EN" "http://www.w3.org/Graphics/SVG/1.1/DTD/svg11.dtd">
<!-- Creator: CorelDRAW 2020 (64-Bit) -->
<svg xmlns="http://www.w3.org/2000/svg" xml:space="preserve" width="40px" height="40px" version="1.1" style="shape-rendering:geometricPrecision; text-rendering:geometricPrecision; image-rendering:optimizeQuality; fill-rule:evenodd; clip-rule:evenodd"
viewBox="0 0 19.74 19.74"
 xmlns:xlink="http://www.w3.org/1999/xlink"
 xmlns:xodm="http://www.corel.com/coreldraw/odm/2003">
 <defs>
  <style type="text/css">
   <![CDATA[
    .str0 {stroke:#2B2624;stroke-width:0.25;stroke-miterlimit:22.9256}
    .fil0 {fill:none}
    .fil1 {fill:#2B2624;fill-rule:nonzero}
   ]]>
  </style>
 </defs>
 <g id="Camada_x0020_1">
  <metadata id="CorelCorpID_0Corel-Layer"/>
  <g id="advantages-item-2.svg">
   <circle class="fil0 str0" cx="9.87" cy="9.87" r="9.75"/>
   <path class="fil1" d="M9.87 10.67c0.98,0 1.78,-0.82 1.78,-1.83l0 -2.82c0,-1.01 -0.8,-1.83 -1.78,-1.83 -0.98,0 -1.78,0.82 -1.78,1.83l0 2.82c0,1.01 0.8,1.83 1.78,1.83zm-1.46 -4.65c0,-0.83 0.65,-1.5 1.46,-1.5 0.8,0 1.46,0.67 1.46,1.5l0 2.82c0,0.83 -0.66,1.51 -1.46,1.51 -0.81,0 -1.46,-0.68 -1.46,-1.51l0 -2.82z"/>
   <path class="fil1" d="M12.78 8.24c-0.09,0 -0.16,0.07 -0.16,0.16l0 0.59c0,1.55 -1.23,2.81 -2.75,2.81 -1.52,0 -2.75,-1.26 -2.75,-2.81l0 -0.59c0,-0.09 -0.08,-0.16 -0.17,-0.16 -0.09,0 -0.16,0.07 -0.16,0.16l0 0.59c0,1.67 1.3,3.04 2.92,3.13l0 2.11 -1.62 0c-0.09,0 -0.16,0.07 -0.16,0.16 0,0.09 0.07,0.17 0.16,0.17l3.56 0c0.09,0 0.16,-0.08 0.16,-0.17 0,-0.09 -0.07,-0.16 -0.16,-0.16l-1.62 0 0 -2.11c1.62,-0.09 2.91,-1.46 2.91,-3.13l0 -0.59c0,-0.09 -0.07,-0.16 -0.16,-0.16z"/>
  </g>
 </g>
</svg>
