<?xml version="1.0" encoding="UTF-8"?>
<!DOCTYPE svg PUBLIC "-//W3C//DTD SVG 1.1//EN" "http://www.w3.org/Graphics/SVG/1.1/DTD/svg11.dtd">
<!-- Creator: CorelDRAW 2020 (64-Bit) -->
<svg xmlns="http://www.w3.org/2000/svg" xml:space="preserve" width="22px" height="20px" version="1.1" style="shape-rendering:geometricPrecision; text-rendering:geometricPrecision; image-rendering:optimizeQuality; fill-rule:evenodd; clip-rule:evenodd"
viewBox="0 0 0.38 0.34"
 xmlns:xlink="http://www.w3.org/1999/xlink"
 xmlns:xodm="http://www.corel.com/coreldraw/odm/2003">
 <defs>
  <style type="text/css">
   <![CDATA[
    .fil0 {fill:#2B2624;fill-rule:nonzero}
   ]]>
  </style>
 </defs>
 <g id="Camada_x0020_1">
  <metadata id="CorelCorpID_0Corel-Layer"/>
  <g id="Group_x0020_183.svg">
   <path class="fil0" d="M0.27 0.01c0,0 -0.01,0 -0.01,0.01 0,0 0,0.01 0,0.01 0.06,0.02 0.1,0.08 0.1,0.14 0,0.08 -0.07,0.15 -0.15,0.15 -0.01,0 -0.01,0.01 -0.01,0.01 0,0 0,0.01 0.01,0.01 0.09,0 0.17,-0.08 0.17,-0.17 0,-0.07 -0.05,-0.13 -0.11,-0.16z"/>
   <path class="fil0" d="M0.21 0.28c0.06,0 0.11,-0.05 0.11,-0.11 0,-0.06 -0.05,-0.11 -0.11,-0.11 -0.01,0 -0.01,0 -0.01,0.01 0,0 0,0 0.01,0 0.05,0 0.09,0.05 0.09,0.1 0,0.05 -0.04,0.09 -0.09,0.09 -0.01,0 -0.01,0.01 -0.01,0.01 0,0 0,0.01 0.01,0.01z"/>
   <path class="fil0" d="M0.23 0.2c0,0 0,0 0,0.01 0,0 0.01,0 0.01,0 0,0 0,0 0,0 0.01,-0.01 0.02,-0.03 0.02,-0.04 0,-0.03 -0.02,-0.05 -0.05,-0.05 -0.01,0 -0.01,0 -0.01,0 0,0.01 0,0.01 0.01,0.01 0.02,0 0.03,0.02 0.03,0.04 0,0.01 0,0.02 -0.01,0.03z"/>
   <path class="fil0" d="M0.17 0c0,0 0,0 -0.01,0l-0.08 0.09 -0.07 0c-0.01,0 -0.01,0 -0.01,0l0 0.15c0,0.01 0,0.01 0.01,0.01l0.07 0c0.01,0 0.01,0 0.01,-0.01 0,0 0,0 -0.01,0l-0.06 0 0 -0.14 0.06 0c0.01,0 0.01,0 0.01,0l0.07 -0.07 0 0.28 -0.04 -0.04c0,0 -0.01,0 -0.01,0 0,0 0,0.01 0,0.01l0.05 0.06c0.01,0 0.01,0 0.01,0 0,0 0,0 0,0 0.01,0 0.01,-0.01 0.01,-0.01l0 -0.32c0,-0.01 0,-0.01 -0.01,-0.01z"/>
  </g>
 </g>
</svg>
