<svg width="22" height="23" viewBox="0 0 32 33" fill="none" xmlns="http://www.w3.org/2000/svg">
<path d="M31.5 16.16C31.5 24.8135 24.5557 31.82 16 31.82C7.44427 31.82 0.5 24.8135 0.5 16.16C0.5 7.50652 7.44427 0.5 16 0.5C24.5557 0.5 31.5 7.50652 31.5 16.16Z" stroke="#68635F"/>
<path d="M17.2864 15.9808C17.2864 15.3846 16.8751 14.8868 16.3221 14.7434V9.87646H15.6793V14.7435C15.1263 14.8869 14.715 15.3847 14.715 15.9809C14.715 16.6884 15.2916 17.2638 16.0007 17.2638C16.2384 17.2638 16.4585 17.1947 16.6497 17.082L20.1792 20.6038L20.6337 20.1503L17.1042 16.6285C17.2172 16.4377 17.2864 16.2181 17.2864 15.9808ZM16.0007 16.6223C15.6464 16.6223 15.3579 16.3345 15.3579 15.9809C15.3579 15.6273 15.6464 15.3394 16.0007 15.3394C16.3551 15.3394 16.6436 15.6273 16.6436 15.9809C16.6436 16.3345 16.355 16.6223 16.0007 16.6223Z" fill="#68635F"/>
<path d="M24.9919 15.6596C24.8255 10.9626 21.0287 7.17409 16.3214 7.00815V7H15.6786V7.00815C10.9713 7.17409 7.17447 10.9626 7.00817 15.6596H7V16.301H7.00817C7.17447 20.9979 10.9713 24.7864 15.6786 24.9524V25H16.3214V24.9524C21.0287 24.7865 24.8255 20.9979 24.9918 16.301H25V15.6596H24.9919ZM24.3491 16.301C24.2705 18.3586 23.4423 20.227 22.1286 21.6418L21.2775 20.7927L20.823 21.2463L21.6741 22.0954C20.2561 23.4062 18.3836 24.2326 16.3215 24.311V23.0362H15.6787V24.311C13.5357 24.2296 11.5976 23.3401 10.1615 21.9388L11.0164 21.0858L10.5619 20.6323L9.71963 21.4727C8.49432 20.0795 7.72633 18.2778 7.65093 16.301H9.24993V15.6596H7.65093C7.7326 13.5213 8.62407 11.5875 10.0283 10.1545L10.7225 10.8472L11.177 10.3936L10.4955 9.71367C11.8917 8.49104 13.6974 7.72482 15.6787 7.64959V8.96383H16.3215V7.64959C18.3836 7.72795 20.2561 8.55434 21.6741 9.8652L20.9838 10.554L21.4383 11.0075L22.1286 10.3187C23.4423 11.7336 24.2705 13.602 24.3491 15.6596H22.7501V16.301H24.3491Z" fill="#68635F"/>
</svg>
