<svg width="80" height="80" viewBox="0 0 100 100" fill="none" xmlns="http://www.w3.org/2000/svg">
<circle cx="50" cy="50" r="50" fill="url(#paint0_linear)"/>
<circle cx="50" cy="50" r="39.5" stroke="#2B2624"/>
<g clip-path="url(#clip0)">
<path d="M56.4183 49.4095C56.1716 49.3304 55.9492 49.2408 55.7192 49.1491C54.635 48.7157 53.4057 48.2246 49.4637 48.2246C45.6513 48.2246 44.4381 48.7032 43.3679 49.1257C43.1147 49.2256 42.8713 49.3225 42.594 49.4059C42.5087 49.4306 42.4291 49.4721 42.3599 49.5279C42.2906 49.5837 42.2331 49.6527 42.1905 49.731C42.148 49.8093 42.1213 49.8953 42.1121 49.984C42.1028 50.0727 42.1111 50.1624 42.1366 50.2479C42.162 50.3333 42.2041 50.4129 42.2603 50.4819C42.3166 50.5509 42.3858 50.6081 42.4642 50.65C42.5425 50.692 42.6284 50.718 42.7168 50.7264C42.8052 50.7348 42.8943 50.7256 42.9792 50.6992C43.2941 50.6047 43.5717 50.4958 43.8593 50.3819C44.8186 50.0037 45.9056 49.5746 49.4637 49.5746C53.1485 49.5746 54.2505 50.0149 55.2225 50.4035C55.4813 50.5067 55.7317 50.606 56.0086 50.6955C56.1784 50.7501 56.3627 50.7346 56.5212 50.6526C56.6796 50.5706 56.7991 50.4287 56.8534 50.2582C56.9077 50.0876 56.8923 49.9024 56.8107 49.7433C56.729 49.5841 56.5878 49.4641 56.4181 49.4095H56.4183Z" fill="#2B2624"/>
<path d="M56.418 53.4606C56.1713 53.3808 55.9488 53.2919 55.7186 53.1995C54.6343 52.7665 53.405 52.2754 49.4637 52.2754C45.6513 52.2754 44.4381 52.754 43.3679 53.1765C43.1147 53.2767 42.8713 53.3736 42.594 53.4566C42.5087 53.4814 42.4291 53.5228 42.3599 53.5786C42.2906 53.6345 42.2331 53.7035 42.1905 53.7818C42.148 53.8601 42.1213 53.9461 42.1121 54.0348C42.1028 54.1235 42.1111 54.2132 42.1366 54.2987C42.162 54.3841 42.2041 54.4637 42.2603 54.5327C42.3166 54.6017 42.3858 54.6589 42.4642 54.7008C42.5425 54.7428 42.6284 54.7687 42.7168 54.7772C42.8052 54.7856 42.8943 54.7763 42.9792 54.7499C43.2941 54.655 43.5717 54.5463 43.8593 54.4327C44.8186 54.0545 45.9056 53.6254 49.4637 53.6254C53.1475 53.6254 54.2498 54.0657 55.2222 54.454C55.4811 54.5575 55.7313 54.657 56.0092 54.746C56.0753 54.7676 56.1444 54.7785 56.2139 54.7783C56.374 54.778 56.5287 54.7202 56.6501 54.6155C56.7716 54.5108 56.8518 54.3659 56.8764 54.2071C56.901 54.0482 56.8684 53.8857 56.7843 53.7488C56.7003 53.612 56.5704 53.5098 56.418 53.4606Z" fill="#2B2624"/>
<path d="M56.418 57.5104C56.1713 57.4306 55.9488 57.3417 55.7186 57.2493C54.6343 56.8163 53.405 56.3252 49.4637 56.3252C45.6513 56.3252 44.4381 56.8038 43.3679 57.2263C43.1147 57.3265 42.8713 57.4234 42.594 57.5064C42.5087 57.5312 42.4291 57.5726 42.3599 57.6284C42.2906 57.6843 42.2331 57.7533 42.1905 57.8316C42.148 57.9099 42.1213 57.9959 42.1121 58.0846C42.1028 58.1733 42.1111 58.263 42.1366 58.3485C42.162 58.4339 42.2041 58.5135 42.2603 58.5825C42.3166 58.6515 42.3858 58.7087 42.4642 58.7506C42.5425 58.7926 42.6284 58.8185 42.7168 58.827C42.8052 58.8354 42.8943 58.8261 42.9792 58.7997C43.2941 58.7048 43.5717 58.5961 43.8593 58.4825C44.8186 58.1043 45.9056 57.6752 49.4637 57.6752C53.1475 57.6752 54.2498 58.1155 55.2222 58.5038C55.4811 58.6073 55.7313 58.7068 56.0092 58.7958C56.0753 58.8175 56.1444 58.8283 56.2139 58.8281C56.374 58.8278 56.5287 58.77 56.6501 58.6653C56.7716 58.5606 56.8518 58.4157 56.8764 58.2569C56.901 58.098 56.8684 57.9355 56.7843 57.7986C56.7003 57.6618 56.5704 57.5596 56.418 57.5104Z" fill="#2B2624"/>
<path d="M68.739 41.1794C68.4577 40.9948 68.1348 40.8841 67.7998 40.8575C67.4648 40.8309 67.1286 40.8892 66.8218 41.0271L62.9803 42.7424C61.8382 42.1038 57.6444 40.125 49.5 40.125C41.3556 40.125 37.1619 42.1038 36.0197 42.7424L32.1783 41.0271C31.8714 40.89 31.5353 40.8321 31.2005 40.8587C30.8657 40.8853 30.5428 40.9956 30.2612 41.1794C29.9796 41.3632 29.7482 41.6148 29.5879 41.9114C29.4277 42.2079 29.3438 42.54 29.3438 42.8774V48.9376C29.3398 50.0667 29.6509 51.1742 30.2417 52.1347C30.8325 53.0951 31.6795 53.87 32.6864 54.3713L35.5277 55.7985C35.8802 57.8335 36.9354 59.6785 38.5077 61.0093C40.0801 62.3401 42.0691 63.0715 44.125 63.075H54.875C56.931 63.0715 58.92 62.3401 60.4923 61.0093C62.0647 59.6785 63.1199 57.8335 63.4724 55.7985L66.3133 54.3713C67.3204 53.8701 68.1674 53.0953 68.7583 52.1348C69.3492 51.1743 69.6603 50.0667 69.6563 48.9376V42.8774C69.6569 42.5399 69.5733 42.2076 69.413 41.9109C69.2528 41.6143 69.0211 41.3628 68.739 41.1794ZM62.2657 43.8899V45.7566C60.5027 44.9354 56.4359 43.5 49.5 43.5C42.5641 43.5 38.4973 44.9354 36.7344 45.7566V43.8902C37.8154 43.311 41.847 41.475 49.5 41.475C57.1561 41.475 61.1873 43.3121 62.2657 43.8899ZM30.6875 48.9376V42.8774C30.6875 42.7649 30.7155 42.6542 30.7689 42.5553C30.8223 42.4564 30.8994 42.3725 30.9933 42.3112C31.0872 42.2499 31.1948 42.2132 31.3064 42.2043C31.418 42.1954 31.5301 42.2147 31.6324 42.2604L35.3907 43.9387V54.2204L33.2871 53.1636C32.504 52.7736 31.8453 52.171 31.3858 51.424C30.9264 50.6771 30.6844 49.8157 30.6875 48.9376ZM54.875 61.725H44.125C42.1656 61.7228 40.2871 60.9398 38.9015 59.5478C37.516 58.1558 36.7366 56.2685 36.7344 54.3V47.2665C37.7981 46.694 41.8191 44.85 49.5 44.85C57.1839 44.85 61.205 46.6955 62.2657 47.2665V54.3C62.2634 56.2685 61.4841 58.1558 60.0985 59.5478C58.713 60.9398 56.8345 61.7228 54.875 61.725ZM68.3125 48.9376C68.3156 49.8158 68.0737 50.6772 67.6141 51.4242C67.1545 52.1712 66.4956 52.7738 65.7124 53.1636L63.6094 54.2201V43.9387L67.3677 42.2606C67.47 42.215 67.5821 42.1957 67.6937 42.2045C67.8053 42.2134 67.9129 42.2502 68.0067 42.3114C68.1006 42.3727 68.1777 42.4566 68.2311 42.5554C68.2845 42.6542 68.3125 42.7649 68.3125 42.8774V48.9376Z" fill="#2B2624"/>
</g>
<defs>
<linearGradient id="paint0_linear" x1="50" y1="0" x2="50" y2="100" gradientUnits="userSpaceOnUse">
<stop stop-color="#EFEFEF"/>
<stop offset="1" stop-color="#F5F5F5"/>
</linearGradient>
<clipPath id="clip0">
<rect width="43" height="54" fill="white" transform="translate(28 30)"/>
</clipPath>
</defs>
</svg>
