<?xml version="1.0" encoding="UTF-8"?>
<!DOCTYPE svg PUBLIC "-//W3C//DTD SVG 1.1//EN" "http://www.w3.org/Graphics/SVG/1.1/DTD/svg11.dtd">
<!-- Creator: CorelDRAW 2020 (64-Bit) -->
<svg xmlns="http://www.w3.org/2000/svg" xml:space="preserve" width="80px" height="80px" version="1.1" style="shape-rendering:geometricPrecision; text-rendering:geometricPrecision; image-rendering:optimizeQuality; fill-rule:evenodd; clip-rule:evenodd"
viewBox="0 0 18.75 18.75"
 xmlns:xlink="http://www.w3.org/1999/xlink"
 xmlns:xodm="http://www.corel.com/coreldraw/odm/2003">
 <defs>
  <style type="text/css">
   <![CDATA[
    .str0 {stroke:#2B2624;stroke-width:0.23;stroke-miterlimit:22.9256}
    .fil0 {fill:none}
    .fil1 {fill:#2B2624;fill-rule:nonzero}
   ]]>
  </style>
 </defs>
 <g id="Camada_x0020_1">
  <metadata id="CorelCorpID_0Corel-Layer"/>
  <g id="advantages-item-4.svg">
   <circle class="fil0 str0" cx="9.38" cy="9.38" r="9.26"/>
   <path class="fil1" d="M12.69 13.11l-0.25 -6.25c-0.01,-0.15 -0.12,-0.26 -0.27,-0.26l-1.13 0 0 -0.01c0,-0.92 -0.75,-1.67 -1.66,-1.67 -0.92,0 -1.67,0.75 -1.67,1.67l0 0.01 -1.13 0c-0.14,0 -0.26,0.11 -0.27,0.26l-0.25 6.25c-0.01,0.19 0.06,0.37 0.19,0.51 0.13,0.13 0.31,0.21 0.5,0.21l5.25 0c0.19,0 0.37,-0.08 0.5,-0.21 0.13,-0.14 0.2,-0.32 0.19,-0.51zm-4.72 -6.52c0,-0.78 0.63,-1.41 1.41,-1.41 0.77,0 1.4,0.63 1.4,1.41l0 0.01 -2.81 0 0 -0.01zm4.34 6.85c-0.08,0.08 -0.19,0.13 -0.31,0.13l-5.25 0c-0.12,0 -0.23,-0.05 -0.31,-0.13 -0.08,-0.09 -0.12,-0.2 -0.12,-0.32l0.25 -6.25c0,-0.01 0.01,-0.01 0.01,-0.01l1.13 0 0 0.84c0,0.07 0.06,0.13 0.13,0.13 0.07,0 0.13,-0.06 0.13,-0.13l0 -0.84 2.81 0 0 0.84c0,0.07 0.06,0.13 0.13,0.13 0.07,0 0.13,-0.06 0.13,-0.13l0 -0.84 1.13 0c0.01,0 0.01,0 0.01,0.01l0.25 6.25c0,0.12 -0.04,0.23 -0.12,0.32z"/>
  </g>
 </g>
</svg>
