<?xml version="1.0" encoding="UTF-8"?>
<!DOCTYPE svg PUBLIC "-//W3C//DTD SVG 1.1//EN" "http://www.w3.org/Graphics/SVG/1.1/DTD/svg11.dtd">
<!-- Creator: CorelDRAW 2020 (64-Bit) -->
<svg xmlns="http://www.w3.org/2000/svg" xml:space="preserve" width="44px" height="44px" version="1.1" style="shape-rendering:geometricPrecision; text-rendering:geometricPrecision; image-rendering:optimizeQuality; fill-rule:evenodd; clip-rule:evenodd"
viewBox="0 0 1.37 1.37"
 xmlns:xlink="http://www.w3.org/1999/xlink"
 xmlns:xodm="http://www.corel.com/coreldraw/odm/2003">
 <defs>
  <style type="text/css">
   <![CDATA[
    .fil0 {fill:#2B2624;fill-rule:nonzero}
   ]]>
  </style>
 </defs>
 <g id="Camada_x0020_1">
  <metadata id="CorelCorpID_0Corel-Layer"/>
  <g id="_930600288">
   <path class="fil0" d="M0.35 0.39c0.01,0.01 0.01,0.01 0.02,0.01 0.01,0 0.02,0 0.02,-0.01 0.01,-0.01 0.01,-0.03 0,-0.04l-0.26 -0.26c-0.01,-0.01 -0.02,-0.01 -0.04,0 -0.01,0.02 -0.01,0.03 0,0.04l0.26 0.26z"/>
   <path class="fil0" d="M0.22 0.05l0.26 0.23c0.03,0.02 0.04,0.06 0.04,0.1 0,0.05 0.02,0.1 0.08,0.17 0,0 0.01,0.01 0.02,0.01 0.01,0 0.01,0 0.02,-0.01 0.01,-0.01 0.01,-0.03 0,-0.04 -0.06,-0.07 -0.06,-0.11 -0.06,-0.13 0,-0.05 -0.02,-0.11 -0.06,-0.14l-0.27 -0.23c-0.01,-0.01 -0.03,-0.01 -0.04,0 -0.01,0.02 -0.01,0.03 0.01,0.04z"/>
   <path class="fil0" d="M1.35 1.22l-0.4 -0.39c-0.01,-0.01 -0.03,-0.01 -0.04,0 -0.01,0.01 -0.01,0.03 0,0.04l0.4 0.39c0.01,0.02 0.01,0.03 0,0.05 -0.02,0.01 -0.03,0.01 -0.05,0l-0.42 -0.43c-0.02,-0.02 -0.03,-0.02 -0.05,0 -0.01,0.01 -0.01,0.02 0,0.04l0.43 0.43c0.02,0.01 0.04,0.02 0.07,0.02 0.02,0 0.04,-0.01 0.06,-0.02 0.03,-0.04 0.03,-0.09 0,-0.13z"/>
   <path class="fil0" d="M1.35 0.12c0,-0.04 -0.01,-0.08 -0.04,-0.11 -0.01,-0.01 -0.03,-0.01 -0.04,0 -0.01,0 -0.1,0.09 -1.22,1.21 -0.03,0.03 -0.03,0.09 0,0.12 0.02,0.02 0.04,0.03 0.06,0.03 0.03,0 0.05,-0.01 0.06,-0.03l0.37 -0.36c0.14,-0.14 0.2,-0.16 0.23,-0.16 0.07,-0.01 0.12,-0.03 0.16,-0.07 0.18,-0.18 0.42,-0.45 0.42,-0.63zm-0.58 0.64c-0.07,0 -0.15,0.06 -0.27,0.18l-0.37 0.36c-0.01,0.01 -0.02,0.01 -0.04,0 -0.01,-0.01 -0.01,-0.03 0,-0.04 0.74,-0.73 1.1,-1.1 1.19,-1.19 0.01,0.02 0.02,0.03 0.02,0.05 0,0.18 -0.31,0.49 -0.41,0.59 -0.03,0.03 -0.07,0.05 -0.12,0.05z"/>
   <path class="fil0" d="M0.38 0.58c0.04,0 0.08,0.02 0.13,0.06 0.01,0.01 0.01,0.01 0.02,0.01 0.01,0 0.02,0 0.02,-0.01 0.01,-0.01 0.01,-0.03 0,-0.04 -0.07,-0.05 -0.12,-0.08 -0.16,-0.08 -0.04,0 -0.08,-0.01 -0.12,-0.05l-0.22 -0.23c-0.01,-0.01 -0.03,-0.01 -0.04,0 -0.01,0.01 -0.01,0.03 0,0.04l0.22 0.23c0.04,0.04 0.09,0.06 0.15,0.07z"/>
  </g>
 </g>
</svg>
