<?xml version="1.0" encoding="UTF-8"?>
<!DOCTYPE svg PUBLIC "-//W3C//DTD SVG 1.1//EN" "http://www.w3.org/Graphics/SVG/1.1/DTD/svg11.dtd">
<!-- Creator: CorelDRAW 2020 (64-Bit) -->
<svg xmlns="http://www.w3.org/2000/svg" xml:space="preserve" width="33px" height="44px" version="1.1" style="shape-rendering:geometricPrecision; text-rendering:geometricPrecision; image-rendering:optimizeQuality; fill-rule:evenodd; clip-rule:evenodd"
viewBox="0 0 0.77 1.04"
 xmlns:xlink="http://www.w3.org/1999/xlink"
 xmlns:xodm="http://www.corel.com/coreldraw/odm/2003">
 <defs>
  <style type="text/css">
   <![CDATA[
    .fil0 {fill:#2B2624;fill-rule:nonzero}
   ]]>
  </style>
 </defs>
 <g id="Camada_x0020_1">
  <metadata id="CorelCorpID_0Corel-Layer"/>
  <path class="fil0" d="M0.77 0.95l-0.03 -0.73c0,-0.01 -0.01,-0.03 -0.03,-0.03l-0.13 0 0 0c0,-0.1 -0.09,-0.19 -0.19,-0.19 -0.11,0 -0.2,0.09 -0.2,0.19l0 0 -0.13 0c-0.02,0 -0.03,0.02 -0.03,0.03l-0.03 0.73c0,0.03 0.01,0.05 0.02,0.06 0.02,0.02 0.04,0.03 0.06,0.03l0.61 0c0.02,0 0.04,-0.01 0.06,-0.03 0.01,-0.01 0.02,-0.03 0.02,-0.06zm-0.55 -0.76c0,-0.09 0.08,-0.16 0.17,-0.16 0.09,0 0.16,0.07 0.16,0.16l0 0 -0.33 0 0 0zm0.51 0.8c-0.01,0.01 -0.03,0.02 -0.04,0.02l-0.61 0c-0.01,0 -0.03,-0.01 -0.04,-0.02 -0.01,-0.01 -0.01,-0.02 -0.01,-0.04l0.03 -0.72c0,0 0,0 0,0l0.13 0 0 0.09c0,0.01 0.01,0.02 0.02,0.02 0.01,0 0.01,-0.01 0.01,-0.02l0 -0.09 0.33 0 0 0.09c0,0.01 0.01,0.02 0.01,0.02 0.01,0 0.02,-0.01 0.02,-0.02l0 -0.09 0.13 0c0,0 0,0 0,0l0.03 0.72c0,0.02 0,0.03 -0.01,0.04z"/>
 </g>
</svg>
