<?xml version="1.0" encoding="UTF-8"?>
<!DOCTYPE svg PUBLIC "-//W3C//DTD SVG 1.1//EN" "http://www.w3.org/Graphics/SVG/1.1/DTD/svg11.dtd">
<!-- Creator: CorelDRAW 2020 (64-Bit) -->
<svg xmlns="http://www.w3.org/2000/svg" xml:space="preserve" width="26px" height="44px" version="1.1" style="shape-rendering:geometricPrecision; text-rendering:geometricPrecision; image-rendering:optimizeQuality; fill-rule:evenodd; clip-rule:evenodd"
viewBox="0 0 0.49 0.82"
 xmlns:xlink="http://www.w3.org/1999/xlink"
 xmlns:xodm="http://www.corel.com/coreldraw/odm/2003">
 <defs>
  <style type="text/css">
   <![CDATA[
    .fil0 {fill:#2B2624;fill-rule:nonzero}
   ]]>
  </style>
 </defs>
 <g id="Camada_x0020_1">
  <metadata id="CorelCorpID_0Corel-Layer"/>
  <g id="_816814896">
   <path class="fil0" d="M0.24 0.51c0.08,0 0.14,-0.06 0.14,-0.14l0 -0.23c0,-0.08 -0.06,-0.14 -0.14,-0.14 -0.07,0 -0.14,0.06 -0.14,0.14l0 0.23c0,0.08 0.07,0.14 0.14,0.14zm-0.11 -0.37c0,-0.06 0.05,-0.11 0.11,-0.11 0.07,0 0.12,0.05 0.12,0.11l0 0.23c0,0.06 -0.05,0.12 -0.12,0.12 -0.06,0 -0.11,-0.06 -0.11,-0.12l0 -0.23z"/>
   <path class="fil0" d="M0.47 0.32c0,0 -0.01,0.01 -0.01,0.01l0 0.05c0,0.12 -0.1,0.22 -0.22,0.22 -0.12,0 -0.21,-0.1 -0.21,-0.22l0 -0.05c0,0 -0.01,-0.01 -0.02,-0.01 0,0 -0.01,0.01 -0.01,0.01l0 0.05c0,0.13 0.1,0.24 0.23,0.25l0 0.16 -0.13 0c0,0 -0.01,0.01 -0.01,0.02 0,0 0.01,0.01 0.01,0.01l0.28 0c0.01,0 0.02,-0.01 0.02,-0.01 0,-0.01 -0.01,-0.02 -0.02,-0.02l-0.12 0 0 -0.16c0.12,-0.01 0.23,-0.12 0.23,-0.25l0 -0.05c0,0 -0.01,-0.01 -0.02,-0.01z"/>
  </g>
 </g>
</svg>
