<?xml version="1.0" encoding="UTF-8"?>
<!DOCTYPE svg PUBLIC "-//W3C//DTD SVG 1.1//EN" "http://www.w3.org/Graphics/SVG/1.1/DTD/svg11.dtd">
<!-- Creator: CorelDRAW 2020 (64-Bit) -->
<svg xmlns="http://www.w3.org/2000/svg" xml:space="preserve" width="44px" height="40px" version="1.1" style="shape-rendering:geometricPrecision; text-rendering:geometricPrecision; image-rendering:optimizeQuality; fill-rule:evenodd; clip-rule:evenodd"
viewBox="0 0 1.37 1.23"
 xmlns:xlink="http://www.w3.org/1999/xlink"
 xmlns:xodm="http://www.corel.com/coreldraw/odm/2003">
 <defs>
  <style type="text/css">
   <![CDATA[
    .fil0 {fill:#2B2624;fill-rule:nonzero}
   ]]>
  </style>
 </defs>
 <g id="Camada_x0020_1">
  <metadata id="CorelCorpID_0Corel-Layer"/>
  <g id="advantages-item-1.svg">
   <path class="fil0" d="M0.99 0.05c-0.02,-0.01 -0.03,0 -0.04,0.01 0,0.02 0,0.03 0.02,0.04 0.21,0.09 0.34,0.29 0.34,0.52 0,0.3 -0.25,0.56 -0.56,0.56 -0.01,0 -0.02,0.01 -0.02,0.02 0,0.02 0.01,0.03 0.02,0.03 0.34,0 0.62,-0.27 0.62,-0.61 0,-0.25 -0.15,-0.48 -0.38,-0.57z"/>
   <path class="fil0" d="M0.75 1.02c0.23,0 0.4,-0.18 0.4,-0.4 0,-0.22 -0.17,-0.4 -0.4,-0.4 -0.01,0 -0.02,0.01 -0.02,0.02 0,0.02 0.01,0.03 0.02,0.03 0.19,0 0.35,0.16 0.35,0.35 0,0.19 -0.16,0.34 -0.35,0.34 -0.01,0 -0.02,0.01 -0.02,0.03 0,0.01 0.01,0.03 0.02,0.03z"/>
   <path class="fil0" d="M0.85 0.72c-0.01,0.01 -0.01,0.03 0,0.04 0,0 0.01,0.01 0.02,0.01 0.01,0 0.01,-0.01 0.02,-0.01 0.04,-0.04 0.06,-0.09 0.06,-0.14 0,-0.11 -0.09,-0.2 -0.2,-0.2 -0.01,0 -0.02,0.01 -0.02,0.03 0,0.02 0.01,0.03 0.02,0.03 0.08,0 0.14,0.06 0.14,0.14 0,0.03 -0.01,0.07 -0.04,0.1z"/>
   <path class="fil0" d="M0.63 0c-0.01,0 -0.02,0 -0.03,0.01l-0.31 0.3 -0.26 0c-0.02,0 -0.03,0.02 -0.03,0.03l0 0.55c0,0.02 0.01,0.03 0.03,0.03l0.27 0c0.02,0 0.03,-0.01 0.03,-0.03 0,-0.01 -0.01,-0.03 -0.03,-0.03l-0.24 0 0 -0.49 0.24 0c0.01,0 0.02,0 0.02,-0.01l0.27 -0.26 0 1.03 -0.14 -0.14c-0.01,-0.01 -0.03,-0.01 -0.04,0 -0.02,0.01 -0.02,0.03 0,0.04l0.19 0.19c0,0.01 0.01,0.01 0.02,0.01 0,0 0.01,0 0.01,0 0.01,0 0.02,-0.01 0.02,-0.03l0 -1.17c0,-0.01 -0.01,-0.02 -0.02,-0.03z"/>
  </g>
 </g>
</svg>
