<svg width="32" height="33" viewBox="0 0 32 33" fill="none" xmlns="http://www.w3.org/2000/svg">
<path d="M31.5 16.16C31.5 24.8135 24.5557 31.82 16 31.82C7.44427 31.82 0.5 24.8135 0.5 16.16C0.5 7.50652 7.44427 0.5 16 0.5C24.5557 0.5 31.5 7.50652 31.5 16.16Z" stroke="#68635F"/>
<g clip-path="url(#clip0)">
<path d="M15.9996 6.85742C12.4431 6.85742 9.54968 9.75081 9.54968 13.3074C9.54968 17.6368 15.4632 24.7116 15.715 25.0107C15.7853 25.0943 15.8888 25.1426 15.998 25.1431C15.9986 25.1431 15.9991 25.1431 15.9996 25.1431C16.1082 25.1431 16.2115 25.0957 16.2822 25.0131C16.534 24.7191 22.4496 17.7611 22.4496 13.3074C22.4495 9.75081 19.5562 6.85742 15.9996 6.85742ZM16.0019 24.1855C14.8142 22.7084 10.2939 16.8525 10.2939 13.3074C10.2939 10.1612 12.8535 7.60165 15.9996 7.60165C19.1457 7.60165 21.7053 10.1612 21.7053 13.3074C21.7053 16.9536 17.1929 22.7257 16.0019 24.1855Z" fill="#68635F"/>
<path d="M15.9994 10.4443C14.4873 10.4443 13.2572 11.6744 13.2572 13.1865C13.2572 14.6986 14.4873 15.9287 15.9994 15.9287C17.5114 15.9287 18.7415 14.6986 18.7415 13.1865C18.7415 11.6744 17.5114 10.4443 15.9994 10.4443ZM15.9994 15.1844C14.8977 15.1844 14.0014 14.2881 14.0014 13.1865C14.0014 12.0848 14.8977 11.1885 15.9994 11.1885C17.1011 11.1885 17.9973 12.0848 17.9973 13.1865C17.9973 14.2881 17.101 15.1844 15.9994 15.1844Z" fill="#68635F"/>
</g>
<defs>
<clipPath id="clip0">
<rect width="18.2857" height="18.2857" fill="white" transform="translate(6.85693 6.85742)"/>
</clipPath>
</defs>
</svg>
