<svg width="100" height="100" viewBox="0 0 100 100" fill="none" xmlns="http://www.w3.org/2000/svg">
<circle cx="50" cy="50" r="50" fill="url(#paint0_linear)"/>
<path d="M68.0528 40.4189H67.0626V38.4565C67.0626 36.8316 65.7407 35.5098 64.1158 35.5098H33.9467C32.3219 35.5099 31 36.8316 31 38.4565V56.6345C31 58.2594 32.3219 59.5813 33.9467 59.5813H34.9374V61.5433C34.9374 63.1684 36.2594 64.4905 37.8845 64.4905H68.0529C69.6779 64.4905 71 63.1684 71 61.5433V43.3661C70.9999 41.741 69.6779 40.4189 68.0528 40.4189ZM34.9374 43.3661V58.239H33.9467C33.062 58.239 32.3423 57.5193 32.3423 56.6345V38.4565C32.3423 37.5718 33.062 36.852 33.9467 36.852H64.1158C65.0005 36.852 65.7203 37.5718 65.7203 38.4565V40.4189H37.8845C36.2594 40.4189 34.9374 41.741 34.9374 43.3661ZM69.6576 61.5433C69.6576 62.4283 68.9377 63.1482 68.0528 63.1482H37.8845C36.9995 63.1482 36.2796 62.4283 36.2796 61.5433V49.8149H69.6576V61.5433ZM69.6576 48.4726H36.2796V45.1616H69.6576V48.4726ZM69.6576 43.8194H36.2796V43.366C36.2796 42.4811 36.9995 41.7612 37.8845 41.7612H68.0529C68.9377 41.7612 69.6576 42.4811 69.6576 43.366V43.8194Z" fill="#2B2624"/>
<path d="M63.1722 52.4092C62.5977 52.4092 62.0524 52.5353 61.561 52.7597C61.0576 52.5309 60.5083 52.4092 59.9507 52.4092C57.8043 52.4092 56.0581 54.1554 56.0581 56.3018C56.0581 58.4482 57.8043 60.1944 59.9507 60.1944C60.5084 60.1944 61.0577 60.0728 61.561 59.8439C62.0524 60.0683 62.5976 60.1944 63.1722 60.1944C65.3186 60.1944 67.0648 58.4482 67.0648 56.3018C67.0648 54.1554 65.3186 52.4092 63.1722 52.4092ZM60.2216 58.8365C60.1318 58.846 60.0415 58.8521 59.9507 58.8521C58.5445 58.8521 57.4004 57.708 57.4004 56.3018C57.4004 54.8955 58.5445 53.7515 59.9507 53.7515C60.0415 53.7515 60.1318 53.7575 60.2216 53.7671C59.6352 54.4487 59.2796 55.3343 59.2796 56.3018C59.2796 57.2693 59.6352 58.1548 60.2216 58.8365ZM63.1722 58.8521C61.7659 58.8521 60.6219 57.708 60.6219 56.3018C60.6219 54.8955 61.7659 53.7515 63.1722 53.7515C64.5784 53.7515 65.7225 54.8955 65.7225 56.3018C65.7225 57.708 64.5784 58.8521 63.1722 58.8521Z" fill="#2B2624"/>
<path d="M48.8523 54.3779H39.7249C39.3542 54.3779 39.0537 54.6784 39.0537 55.0491C39.0537 55.4197 39.3542 55.7202 39.7249 55.7202H48.8523C49.223 55.7202 49.5235 55.4197 49.5235 55.0491C49.5235 54.6784 49.223 54.3779 48.8523 54.3779Z" fill="#2B2624"/>
<path d="M53.1476 57.7783H39.7249C39.3542 57.7783 39.0537 58.0788 39.0537 58.4495C39.0537 58.8201 39.3542 59.1206 39.7249 59.1206H53.1476C53.5183 59.1206 53.8188 58.8201 53.8188 58.4495C53.8188 58.0788 53.5183 57.7783 53.1476 57.7783Z" fill="#2B2624"/>
<circle cx="50" cy="50" r="39.5" stroke="#2B2624"/>
<defs>
<linearGradient id="paint0_linear" x1="50" y1="0" x2="50" y2="100" gradientUnits="userSpaceOnUse">
<stop stop-color="#EFEFEF"/>
<stop offset="1" stop-color="#F5F5F5"/>
</linearGradient>
</defs>
</svg>
