<svg width="100" height="100" viewBox="0 0 100 100" fill="none" xmlns="http://www.w3.org/2000/svg">
<circle cx="50" cy="50" r="50" fill="url(#paint0_linear)"/>
<circle cx="50" cy="50" r="39.5" stroke="#2B2624"/>
<path d="M52.8508 48.9558C52.8508 47.631 51.9388 46.5248 50.7126 46.2061V35.3906H49.2872V46.2063C48.0609 46.5249 47.1489 47.6312 47.1489 48.956C47.1489 50.5283 48.4275 51.8069 49.9998 51.8069C50.5269 51.8069 51.0149 51.6534 51.4389 51.403L59.2651 59.2292L60.2729 58.2213L52.4467 50.3952C52.6973 49.9712 52.8508 49.4832 52.8508 48.9558ZM50 50.3814C49.2142 50.3814 48.5745 49.7418 48.5745 48.956C48.5745 48.1702 49.2142 47.5306 50 47.5306C50.7857 47.5306 51.4254 48.1702 51.4254 48.956C51.4254 49.7418 50.7856 50.3814 50 50.3814Z" fill="#2B2624"/>
<path d="M69.9379 48.2435C69.569 37.8059 61.1502 29.3869 50.7124 29.0181V29H49.2869V29.0181C38.8493 29.3869 30.4303 37.8059 30.0616 48.2435H30.0435V49.6689H30.0616C30.4303 60.1065 38.8493 68.5253 49.2869 68.8943V69H50.7124V68.8943C61.15 68.5255 69.5688 60.1065 69.9377 49.6689H69.9558V48.2435H69.9379ZM68.5125 49.6689C68.3384 54.2413 66.5019 58.3934 63.5889 61.5374L61.7018 59.6505L60.694 60.6584L62.5811 62.5453C59.437 65.4583 55.2849 67.2947 50.7125 67.4689V64.6359H49.2871V67.4689C44.5355 67.288 40.238 65.3112 37.0537 62.1974L38.9492 60.3019L37.9414 59.294L36.0738 61.1615C33.3569 58.0656 31.654 54.0619 31.4868 49.6689H35.0323V48.2435H31.4868C31.6679 43.4918 33.6446 39.1943 36.7583 36.0101L38.2975 37.5492L39.3053 36.5414L37.7943 35.0304C40.8901 32.3134 44.894 30.6107 49.2871 30.4435V33.3641H50.7125V30.4435C55.2849 30.6177 59.437 32.4541 62.5811 35.3671L61.0505 36.8977L62.0583 37.9056L63.5889 36.375C66.5019 39.5192 68.3384 43.6711 68.5125 48.2435H64.967V49.6689H68.5125Z" fill="#2B2624"/>
<defs>
<linearGradient id="paint0_linear" x1="50" y1="0" x2="50" y2="100" gradientUnits="userSpaceOnUse">
<stop stop-color="#EFEFEF"/>
<stop offset="1" stop-color="#F5F5F5"/>
</linearGradient>
</defs>
</svg>
