<svg width="317" height="80" viewBox="0 0 317 80" fill="none" xmlns="http://www.w3.org/2000/svg">
<circle cx="40" cy="40" r="39.5" stroke="#2B2624"/>
<path d="M54.1412 55.9452L53.0732 29.2455C53.0484 28.6251 52.5425 28.1389 51.9215 28.1389H47.1017V28.1018C47.1017 24.1858 43.9158 21 39.9999 21C36.084 21 32.8981 24.1858 32.8981 28.1018V28.1389H28.0784C27.4574 28.1389 26.9516 28.625 26.9266 29.2455L25.8586 55.9452C25.8264 56.7515 26.1165 57.5159 26.6755 58.0977C27.2346 58.6796 27.9869 59 28.7937 59H51.2062C52.0131 59 52.7653 58.6796 53.3244 58.0977C53.8833 57.5158 54.1735 56.7515 54.1412 55.9452ZM34.0136 28.1018C34.0136 24.8009 36.699 22.1155 39.9999 22.1155C43.3008 22.1155 45.9862 24.8009 45.9862 28.1018V28.1389H34.0136V28.1018ZM52.52 57.3249C52.1732 57.6858 51.7066 57.8845 51.2062 57.8845H28.7937C28.2932 57.8845 27.8267 57.6858 27.4799 57.325C27.1332 56.9641 26.9532 56.4899 26.9733 55.9898L28.0412 29.2901C28.042 29.27 28.0583 29.2544 28.0784 29.2544H32.8981V32.8611C32.8981 33.1691 33.1479 33.4188 33.4559 33.4188C33.7639 33.4188 34.0136 33.1691 34.0136 32.8611V29.2544H45.9862V32.8611C45.9862 33.1691 46.2359 33.4188 46.5439 33.4188C46.852 33.4188 47.1017 33.1691 47.1017 32.8611V29.2544H51.9215C51.9415 29.2544 51.9578 29.27 51.9586 29.2901L53.0266 55.9898C53.0466 56.4898 52.8667 56.964 52.52 57.3249Z" fill="#2B2624"/>
</svg>
