<svg width="26" height="42" viewBox="0 0 26 42" fill="none" xmlns="http://www.w3.org/2000/svg">
<path d="M13 26.25C16.9804 26.25 20.2188 22.9258 20.2188 18.8396V7.41037C20.2188 3.32423 16.9804 0 13 0C9.01958 0 5.78125 3.32423 5.78125 7.41037V18.8396C5.78125 22.9258 9.01958 26.25 13 26.25ZM7.09375 7.41037C7.09375 4.04808 9.74342 1.3125 13 1.3125C16.2566 1.3125 18.9062 4.04808 18.9062 7.41037V18.8396C18.9062 22.202 16.2566 24.9375 13 24.9375C9.74343 24.9375 7.09375 22.202 7.09375 18.8396V7.41037Z" fill="#2B2624"/>
<path d="M24.8125 16.4062C24.4501 16.4062 24.1562 16.7001 24.1562 17.0625V19.4469C24.1562 25.7312 19.1517 30.8438 13 30.8438C6.84831 30.8438 1.84375 25.7312 1.84375 19.4469V17.0625C1.84375 16.7001 1.54988 16.4062 1.1875 16.4062C0.825119 16.4062 0.53125 16.7001 0.53125 17.0625V19.4469C0.53125 26.2291 5.77429 31.7713 12.3438 32.1223V40.6875H5.78125C5.41887 40.6875 5.125 40.9814 5.125 41.3438C5.125 41.7062 5.41887 42 5.78125 42H20.2188C20.5811 42 20.875 41.7062 20.875 41.3438C20.875 40.9814 20.5811 40.6875 20.2188 40.6875H13.6562V32.1223C20.2257 31.7713 25.4688 26.2291 25.4688 19.4469V17.0625C25.4688 16.7001 25.1749 16.4062 24.8125 16.4062Z" fill="#2B2624"/>
</svg>
