<svg width="317" height="80" viewBox="0 0 317 80" fill="none" xmlns="http://www.w3.org/2000/svg">
<circle cx="40" cy="40" r="39.5" stroke="#2B2624"/>
<path d="M40 43.25C43.9804 43.25 47.2188 39.9258 47.2188 35.8396V24.4104C47.2188 20.3242 43.9804 17 40 17C36.0196 17 32.7812 20.3242 32.7812 24.4104V35.8396C32.7812 39.9258 36.0196 43.25 40 43.25ZM34.0938 24.4104C34.0938 21.0481 36.7434 18.3125 40 18.3125C43.2566 18.3125 45.9062 21.0481 45.9062 24.4104V35.8396C45.9062 39.202 43.2566 41.9375 40 41.9375C36.7434 41.9375 34.0938 39.202 34.0938 35.8396V24.4104Z" fill="#2B2624"/>
<path d="M51.8125 33.4062C51.4501 33.4062 51.1562 33.7001 51.1562 34.0625V36.4469C51.1562 42.7312 46.1517 47.8438 40 47.8438C33.8483 47.8438 28.8438 42.7312 28.8438 36.4469V34.0625C28.8438 33.7001 28.5499 33.4062 28.1875 33.4062C27.8251 33.4062 27.5312 33.7001 27.5312 34.0625V36.4469C27.5312 43.2291 32.7743 48.7713 39.3438 49.1223V57.6875H32.7812C32.4189 57.6875 32.125 57.9814 32.125 58.3438C32.125 58.7062 32.4189 59 32.7812 59H47.2188C47.5811 59 47.875 58.7062 47.875 58.3438C47.875 57.9814 47.5811 57.6875 47.2188 57.6875H40.6562V49.1223C47.2257 48.7713 52.4688 43.2291 52.4688 36.4469V34.0625C52.4688 33.7001 52.1749 33.4062 51.8125 33.4062Z" fill="#2B2624"/>
</svg>
