<svg width="317" height="80" viewBox="0 0 317 80" fill="none" xmlns="http://www.w3.org/2000/svg">
<circle cx="40" cy="40" r="39.5" stroke="#2B2624"/>
<g clip-path="url(#clip0)">
<path d="M22.8125 29C22.8125 30.5861 23.3529 32.4375 24.875 32.4375H32.7208L39.2128 44.1663L32.7201 55.125H30.375V56.5H33.5299L40 45.5818L46.4701 56.5H49.625V55.125H47.2799L40.7872 44.1663L47.2793 32.4375H55.125C56.6471 32.4375 57.1875 30.5861 57.1875 29V28.3125H22.8125V29ZM40 42.75L34.2931 32.4375H45.7069L40 42.75ZM55.7609 29.6875C55.6626 30.3771 55.4323 31.0625 55.125 31.0625H24.875C24.5643 31.0625 24.336 30.3826 24.2391 29.6875H55.7609Z" fill="#2B2624"/>
</g>
<defs>
<clipPath id="clip0">
<rect width="44" height="55" fill="white" transform="translate(18 18)"/>
</clipPath>
</defs>
</svg>
