<svg width="317" height="80" viewBox="0 0 317 80" fill="none" xmlns="http://www.w3.org/2000/svg">
<circle cx="40" cy="40" r="39.5" stroke="#2B2624"/>
<g clip-path="url(#clip0)">
<path d="M32.4525 33.4253C32.5873 33.5586 32.7632 33.6261 32.9393 33.6261C33.1153 33.6261 33.2913 33.5587 33.4247 33.4253C33.6928 33.1572 33.6928 32.7213 33.4247 32.4531L27.2371 26.2655C26.969 25.9974 26.5331 25.9974 26.2649 26.2655C25.9968 26.5337 25.9968 26.9696 26.2649 27.2377L32.4525 33.4253Z" fill="#2B2624"/>
<path d="M29.2087 25.3148L35.5324 30.6705C36.1786 31.3168 36.5444 32.1775 36.5347 33.0328C36.521 34.2387 37.104 35.5202 38.4227 37.1895C38.5588 37.3614 38.7596 37.4507 38.963 37.4507C39.1116 37.4507 39.2628 37.4026 39.3879 37.3009C39.6863 37.0657 39.7358 36.634 39.5007 36.3356C38.061 34.5137 37.9029 33.587 37.9097 33.0479C37.9235 31.8256 37.412 30.6046 36.4632 29.6599L30.0983 24.2657C29.8082 24.0195 29.3723 24.0566 29.1289 24.3454C28.8828 24.6356 28.9199 25.07 29.2087 25.3148Z" fill="#2B2624"/>
<path d="M56.3968 53.4817L46.9463 44.0312C46.6782 43.763 46.2423 43.763 45.9742 44.0312C45.706 44.2993 45.706 44.7352 45.9742 45.0033L55.4247 54.4538C55.6928 54.7219 55.6928 55.1578 55.4247 55.426C55.1565 55.6941 54.7206 55.6941 54.4525 55.426L44.1042 45.0775C43.836 44.8094 43.4001 44.8094 43.132 45.0775C42.8639 45.3456 42.8639 45.7815 43.132 46.0497L53.4804 56.3981C53.8833 56.7996 54.4113 57.0003 54.9393 57.0003C55.4673 57.0003 55.9953 56.7996 56.3968 56.3981C57.2012 55.5937 57.2012 54.286 56.3968 53.4817Z" fill="#2B2624"/>
<path d="M56.561 27.0065C56.5582 25.8873 56.1787 24.944 55.4307 24.2015C55.1832 23.954 54.7914 23.9334 54.5177 24.152C54.3871 24.2565 52.0977 26.5267 25.2959 53.367C24.4902 54.1741 24.4887 55.4859 25.2918 56.2888C25.6947 56.6917 26.224 56.8925 26.752 56.8925C27.2787 56.8925 27.8053 56.6917 28.2068 56.2916L36.9588 47.5383C40.3303 44.1681 41.7906 43.6992 42.5949 43.6414C44.1061 43.5314 45.4096 42.9691 46.3666 42.0134C50.7474 37.6327 56.5692 31.3117 56.561 27.0065ZM42.4946 42.2678C40.8226 42.3888 38.8756 43.6744 35.9853 46.5633L27.2333 55.3181C26.9665 55.5862 26.5306 55.5835 26.2625 55.3153C25.9944 55.0486 25.9972 54.61 26.268 54.3391C43.8861 36.6949 52.7536 27.8247 54.8752 25.7181C55.0828 26.0894 55.1846 26.5156 55.1846 27.0065C55.1915 31.2388 47.8172 38.6144 45.3931 41.0385C44.674 41.7577 43.6716 42.1826 42.4946 42.2678Z" fill="#2B2624"/>
<path d="M33.261 37.916C34.0571 37.9751 35.0636 38.4935 36.3396 39.5014C36.4661 39.6017 36.6173 39.6499 36.7658 39.6499C36.9693 39.6499 37.1701 39.5605 37.3049 39.3886C37.54 39.0903 37.4905 38.6585 37.1921 38.4234C35.6728 37.2216 34.4544 36.6248 33.3613 36.5451C32.5349 36.4846 31.3648 36.2275 30.4972 35.3599L25.1882 29.7168C24.9284 29.4404 24.4925 29.4281 24.2161 29.6879C23.9397 29.9478 23.9273 30.3837 24.1872 30.6601L29.5113 36.3169C30.4463 37.2519 31.7429 37.8046 33.261 37.916Z" fill="#2B2624"/>
</g>
<defs>
<clipPath id="clip0">
<rect width="33" height="33" fill="white" transform="translate(24 24)"/>
</clipPath>
</defs>
</svg>
