<svg width="13" height="19" viewBox="0 0 13 19" fill="none" xmlns="http://www.w3.org/2000/svg">
<path d="M1.22101 8.75854L9.67833 0.305081C9.87529 0.10813 10.134 0 10.4121 0C10.6901 0 10.9527 0.10813 11.1458 0.305081L11.7714 0.926829C12.1769 1.33232 12.1769 1.99268 11.7714 2.39817L4.66959 9.5L11.7791 16.6057C11.9761 16.8026 12.0842 17.0614 12.0842 17.3394C12.0842 17.6175 11.9761 17.8801 11.7791 18.0732L11.1574 18.6949C10.9604 18.8919 10.7017 19 10.4237 19C10.1456 19 9.88301 18.8919 9.68992 18.6949L1.22101 10.2337C1.02406 10.0368 0.915934 9.77419 0.919795 9.49614C0.919795 9.21809 1.02406 8.95549 1.22101 8.75854Z" fill="#68635F"/>
</svg>
